<svg width="200" height="26" viewBox="0 0 200 26" fill="none" xmlns="http://www.w3.org/2000/svg">
<path d="M94.3183 3.76197C100.736 3.76197 100.802 13.6618 94.2696 13.6618L98.8591 19.0671C100.292 20.8258 98.2083 22.7744 96.4796 21.0169L91.0676 14.6618C90.5358 14.0222 90.1327 13.4905 90.1326 12.6144C90.1329 11.525 90.9381 11.1714 91.9362 11.1713H94.6246C97.7102 11.1709 97.9132 6.67705 94.6246 6.67665H87.4443V20.2974C87.4441 22.1581 84.5298 22.1873 84.5296 20.3259V5.15359C84.5296 4.18822 84.9056 3.76197 85.9144 3.76197H94.3183Z" fill="#D9D9D9"/>
<path d="M35.552 3.76205C42.2323 3.76221 42.2582 14.086 35.5791 14.086H29.7795V20.1349C29.7793 22.192 26.922 22.2434 26.9218 20.1349V13.2527C26.9219 11.9118 27.3178 11.1714 28.7253 11.1714H35.8568C39.1809 11.1714 38.971 6.67673 35.8568 6.67673H28.2538C26.4331 6.67673 26.2816 3.7621 28.2253 3.76205H35.552Z" fill="#D9D9D9"/>
<path d="M146.86 3.76197C153.537 3.76197 153.573 14.0857 146.888 14.086H141.087V20.1348C141.087 22.1899 138.23 22.2187 138.229 20.1348V13.2526C138.23 11.9126 138.627 11.1713 140.033 11.1713H147.165C150.49 11.1713 150.28 6.67665 147.165 6.67665H139.561C137.683 6.67665 137.669 3.76224 139.533 3.76197H146.86Z" fill="#1EA5B4"/>
<path d="M45.7147 5.0114C45.7147 3.16289 48.6009 3.14484 48.6009 5.0114V11.1714H55.9818V5.0114C55.9818 3.13875 58.8409 3.17563 58.8409 5.0114V20.246C58.8406 22.0726 55.982 22.116 55.9818 20.246V14.086H48.6009V20.246C48.6007 22.0646 45.7149 22.161 45.7147 20.246V5.0114Z" fill="#D9D9D9"/>
<path d="M18.0449 5.0114C18.0449 3.13786 20.9041 3.1803 20.9041 5.0114V20.246C20.9038 22.0679 18.0452 22.1169 18.0449 20.246V5.0114Z" fill="#D9D9D9"/>
<path d="M187.202 5.7742C186.309 4.17616 188.7 2.66708 189.683 4.35141L193.497 10.8827L197.271 4.34464C198.254 2.66704 200.757 4.20941 199.776 5.77826L194.933 13.5792V20.2459C194.933 22.0678 192.075 22.1168 192.074 20.2459V13.5765L187.202 5.7742Z" fill="#1EA5B4"/>
<path d="M176.719 5.49099C175.986 3.77843 178.749 2.84105 179.464 4.57364L185.783 19.7351C186.486 21.4925 183.749 22.4123 183.025 20.6606L183.016 20.6362L182.181 18.7202H173.169L172.29 20.6267C171.533 22.3282 168.782 21.5121 169.531 19.7649L172.661 12.8176C173.417 11.1172 176.226 11.9249 175.433 13.6429L175.42 13.6713L175.407 13.7011L174.323 16.3611H181.244L176.726 5.50455L176.719 5.49099Z" fill="#1EA5B4"/>
<path d="M10.9622 3.76205C13.1197 3.76224 13.2187 6.73209 10.9622 6.73229C9.173 6.73229 7.31975 6.72729 5.73991 7.68623C4.15311 8.66021 2.99733 10.334 2.99733 12.5874C2.99742 14.2003 3.61589 15.6213 4.59491 16.6728C6.24428 18.4285 8.61578 18.582 10.8782 18.582C13.2258 18.582 13.1469 21.4953 10.8782 21.4953C7.72826 21.4953 4.58546 20.9721 2.33336 18.559C0.853265 16.8877 7.33358e-05 14.7785 0 12.5318C0 9.72544 1.26233 7.2533 3.43365 5.62794C5.62844 4.00734 8.32148 3.76205 10.9622 3.76205Z" fill="#D9D9D9"/>
<path d="M77.5159 3.76205C79.3702 3.76248 79.424 6.67622 77.5159 6.67673H67.6635V11.3665H77.6812C79.2516 11.3665 79.1782 13.9194 77.6812 13.9194H67.6635V18.582H77.5715C79.4926 18.5826 79.4983 21.4948 77.5715 21.4953H66.2488C65.2276 21.4953 64.8329 21.0664 64.8328 20.0522V5.20517C64.8329 4.18035 65.2181 3.76205 66.2488 3.76205H77.5159Z" fill="#D9D9D9"/>
<path d="M157.022 5.01131C157.022 3.13829 159.853 3.18751 159.853 5.01131V18.582H164.265C166.004 18.582 166.012 21.4953 164.265 21.4953H158.438C157.417 21.4953 157.022 21.0663 157.022 20.0522V5.01131Z" fill="#1EA5B4"/>
<path fill-rule="evenodd" clip-rule="evenodd" d="M112.56 11.1687L114.406 12.2358C114.41 12.2381 114.412 12.2426 114.412 12.2471C114.412 12.2516 114.41 12.2557 114.406 12.2578L112.207 13.3901C112.203 13.3922 112.198 13.3919 112.194 13.3891C112.19 13.3864 112.188 13.3816 112.189 13.377L112.541 11.1775L112.543 11.1718C112.544 11.1702 112.546 11.169 112.548 11.1681C112.552 11.1664 112.556 11.1667 112.56 11.1687Z" fill="#1EA5B4"/>
<path fill-rule="evenodd" clip-rule="evenodd" d="M112.561 11.169C112.565 11.1718 112.566 11.1764 112.566 11.1809L112.214 13.3806C112.213 13.3847 112.211 13.3883 112.207 13.3901C112.203 13.3918 112.199 13.3915 112.195 13.3895L111.335 12.8932C111.262 12.8509 111.196 12.8296 111.131 12.8293C111.066 12.8289 111 12.8495 110.924 12.8932C110.92 12.8955 110.915 12.8952 110.911 12.8926C110.907 12.89 110.905 12.8854 110.906 12.8807L111.043 11.8483C111.044 11.844 111.047 11.8403 111.05 11.8385L112.548 11.1678C112.553 11.1659 112.558 11.1662 112.561 11.169Z" fill="#23B6BC"/>
<path fill-rule="evenodd" clip-rule="evenodd" d="M110.603 10.646C110.929 10.458 111.331 10.458 111.657 10.646L112.56 11.1682C112.564 11.1705 112.566 11.1751 112.566 11.1797C112.566 11.1844 112.563 11.1885 112.559 11.1904L111.061 11.8614C111.058 11.8628 111.054 11.8627 111.051 11.8614C111.048 11.8601 111.045 11.8576 111.044 11.8544L110.598 10.6612C110.596 10.6555 110.598 10.6491 110.603 10.646Z" fill="#20AEB8"/>
<path fill-rule="evenodd" clip-rule="evenodd" d="M110.621 10.6527L111.067 11.8455C111.068 11.8475 111.068 11.8496 111.068 11.8516L110.93 12.8841C110.93 12.8878 110.928 12.8913 110.924 12.8932L109.873 13.5C109.87 13.5016 109.866 13.5021 109.863 13.5012C109.86 13.5003 109.857 13.4982 109.856 13.4954L108.816 11.6918C108.813 11.6858 108.815 11.6782 108.821 11.6747L110.603 10.6463C110.606 10.6444 110.61 10.6438 110.613 10.6451C110.617 10.6463 110.619 10.6493 110.621 10.6527Z" fill="#2ACFC7"/>
<path fill-rule="evenodd" clip-rule="evenodd" d="M108.825 11.6732C108.83 11.6726 108.835 11.6753 108.837 11.6796L109.877 13.4829C109.879 13.4867 109.879 13.4915 109.877 13.4954C109.875 13.4992 109.871 13.5017 109.867 13.5018L108.286 13.5209C108.282 13.521 108.278 13.5192 108.276 13.5161C108.273 13.5129 108.273 13.5089 108.274 13.5051L108.815 11.682L108.819 11.6762C108.82 11.6747 108.823 11.6735 108.825 11.6732Z" fill="#2DD9CC"/>
<path fill-rule="evenodd" clip-rule="evenodd" d="M109.875 13.4797C109.877 13.4817 109.879 13.4845 109.879 13.4876C109.917 13.8182 109.89 14.1454 109.807 14.4543C109.805 14.4583 109.803 14.4618 109.799 14.4631L108.831 14.7883C108.827 14.7897 108.822 14.7885 108.819 14.7853L108.223 14.2104C108.219 14.2068 108.218 14.2012 108.22 14.1964C108.313 13.9886 108.338 13.7487 108.275 13.5117C108.274 13.508 108.274 13.5041 108.277 13.501C108.279 13.498 108.283 13.4959 108.286 13.4959L109.867 13.4767L109.875 13.4797Z" fill="#31EBD4"/>
<path fill-rule="evenodd" clip-rule="evenodd" d="M109.803 14.4419C109.806 14.445 109.808 14.4499 109.806 14.4543C109.687 14.8983 109.452 15.3046 109.127 15.6296C109.124 15.6326 109.119 15.6338 109.115 15.6329C109.111 15.6319 109.108 15.629 109.106 15.625L108.815 14.7804C108.814 14.7773 108.814 14.7737 108.816 14.7707C108.817 14.7677 108.82 14.7653 108.823 14.7643L109.79 14.4391C109.795 14.4377 109.799 14.4388 109.803 14.4419Z" fill="#34F6D9"/>
<path fill-rule="evenodd" clip-rule="evenodd" d="M107.428 11.1667L107.436 11.17C107.438 11.1721 107.439 11.1748 107.44 11.178L107.563 12.7712C107.563 12.7752 107.562 12.7793 107.558 12.7819C107.555 12.7844 107.551 12.7853 107.547 12.7843C107.378 12.739 107.196 12.7358 107.015 12.7843C106.467 12.9313 106.141 13.4954 106.288 14.0438C106.435 14.5923 106.999 14.9174 107.547 14.7706C107.859 14.6871 108.099 14.4695 108.221 14.1964L108.224 14.1915C108.226 14.1903 108.228 14.1895 108.23 14.1891C108.234 14.1883 108.238 14.1896 108.241 14.1924L108.836 14.7672L108.839 14.7721L109.13 15.6167C109.132 15.6212 109.131 15.6264 109.127 15.6298C108.814 15.9428 108.417 16.1804 107.958 16.3032C106.564 16.6769 105.13 15.8489 104.756 14.4543C104.383 13.0596 105.21 11.6257 106.605 11.2519C106.846 11.1873 107.088 11.1587 107.326 11.1627L107.428 11.1667Z" fill="#37FFDE"/>
<path fill-rule="evenodd" clip-rule="evenodd" d="M107.428 11.1666C107.942 11.1956 108.43 11.3766 108.835 11.6754C108.839 11.6785 108.841 11.6841 108.84 11.6891L108.299 13.5119C108.297 13.5173 108.292 13.5208 108.287 13.5207C108.281 13.5206 108.276 13.517 108.275 13.5116C108.176 13.144 107.891 12.8764 107.548 12.7842C107.542 12.7829 107.538 12.7785 107.538 12.7733L107.415 11.18C107.415 11.1765 107.416 11.1729 107.419 11.1703C107.421 11.1678 107.425 11.1665 107.428 11.1666Z" fill="#34F3D8"/>
<path fill-rule="evenodd" clip-rule="evenodd" d="M118.344 8.03548C118.906 7.88509 119.484 8.21841 119.634 8.78019C119.784 9.34188 119.45 9.9193 118.889 10.0699C118.331 10.1901 117.753 9.90055 117.599 9.32518C117.482 8.76699 117.767 8.19038 118.344 8.03548Z" fill="#21AFB8"/>
<path fill-rule="evenodd" clip-rule="evenodd" d="M121.546 6.47088C121.551 6.46982 121.556 6.47164 121.559 6.47544C121.562 6.47931 121.562 6.48453 121.56 6.48884L120.873 7.78097C120.871 7.78492 120.867 7.78753 120.862 7.78767C120.858 7.78778 120.854 7.78542 120.851 7.78158C120.624 7.40226 120.304 7.09003 119.932 6.86667C119.927 6.86406 119.925 6.85891 119.926 6.85389C119.927 6.8489 119.93 6.84498 119.935 6.84384L121.546 6.47088Z" fill="#20ABB6"/>
<path fill-rule="evenodd" clip-rule="evenodd" d="M118.354 4.65514L121.556 6.47216C121.56 6.47469 121.562 6.47964 121.562 6.48464C121.561 6.48968 121.557 6.49379 121.552 6.49499L119.941 6.86796C119.938 6.86869 119.935 6.8681 119.932 6.86643C119.315 6.49653 118.553 6.37086 117.819 6.58907C117.815 6.59037 117.81 6.58921 117.807 6.58603C117.804 6.58285 117.802 6.57818 117.804 6.57385L118.336 4.66275L118.338 4.65788C118.34 4.65647 118.341 4.65527 118.343 4.65453C118.346 4.65308 118.351 4.65325 118.354 4.65514Z" fill="#22B4BB"/>
<path fill-rule="evenodd" clip-rule="evenodd" d="M118.346 4.6536C118.35 4.65329 118.354 4.65505 118.357 4.65817C118.359 4.66131 118.36 4.66552 118.359 4.66943L117.827 6.58053C117.825 6.5867 117.819 6.59046 117.813 6.58936L116.185 6.29677C116.181 6.29605 116.178 6.29345 116.176 6.28977C116.174 6.28611 116.175 6.282 116.177 6.2785C116.443 5.81747 116.445 5.276 116.23 4.82988C116.228 4.82619 116.228 4.82185 116.23 4.81831C116.232 4.81474 116.236 4.81253 116.24 4.81222L118.346 4.6536Z" fill="#20A9B6"/>
<path fill-rule="evenodd" clip-rule="evenodd" d="M117.817 6.565C117.823 6.566 117.827 6.57059 117.828 6.57626C117.828 6.58193 117.824 6.58725 117.819 6.58905C117.222 6.78176 116.74 7.17419 116.427 7.6714C116.425 7.67578 116.419 7.6779 116.414 7.67688C116.409 7.67587 116.405 7.6719 116.405 7.66684L116.175 6.28672C116.174 6.28275 116.175 6.2786 116.178 6.27576C116.181 6.27292 116.185 6.27171 116.189 6.27241L117.817 6.565Z" fill="#23B8BD"/>
<path fill-rule="evenodd" clip-rule="evenodd" d="M113.281 5.58158C113.286 5.58334 113.289 5.58765 113.289 5.59254C113.318 6.09537 113.593 6.57437 114.061 6.84509C114.802 7.27246 115.749 7.01884 116.177 6.27849L116.182 6.27362C116.185 6.27254 116.187 6.27193 116.19 6.2724C116.195 6.27338 116.199 6.2776 116.2 6.28275L116.429 7.66287C116.43 7.66906 116.427 7.67507 116.421 7.67688L113.28 8.60487C113.275 8.60651 113.269 8.60413 113.266 8.59909L112.19 6.70169C112.188 6.69689 112.189 6.69101 112.193 6.68707L113.268 5.58432L113.274 5.58097C113.276 5.58042 113.279 5.5807 113.281 5.58158Z" fill="#23B7BC"/>
<path fill-rule="evenodd" clip-rule="evenodd" d="M116.427 7.65725C116.43 7.66138 116.43 7.66717 116.428 7.67156C116.17 8.08102 116.027 8.56159 116.028 9.0602C116.028 9.06467 116.026 9.06892 116.022 9.07116L115.368 9.44869C115.245 9.51934 115.15 9.55671 115.053 9.55708C114.956 9.55742 114.859 9.52072 114.734 9.44869L113.271 8.60381C113.266 8.60134 113.264 8.59654 113.264 8.59164C113.265 8.58672 113.268 8.58242 113.273 8.58098L116.414 7.65299C116.418 7.65153 116.424 7.6532 116.427 7.65725Z" fill="#26C1C1"/>
<path fill-rule="evenodd" clip-rule="evenodd" d="M112.199 6.68329C112.204 6.6824 112.209 6.6848 112.212 6.68938L113.287 8.58677C113.29 8.59164 113.289 8.59773 113.285 8.60169C113.281 8.60565 113.275 8.60663 113.27 8.60382L110.49 6.99871C110.485 6.99608 110.483 6.99079 110.484 6.98562C110.485 6.98047 110.488 6.97647 110.494 6.97557L112.199 6.68329Z" fill="#29CCC6"/>
<path fill-rule="evenodd" clip-rule="evenodd" d="M111.409 4.50126L113.282 5.5824C113.285 5.58432 113.288 5.58772 113.288 5.59153C113.289 5.59531 113.288 5.59915 113.285 5.60189L112.21 6.70434C112.208 6.70622 112.205 6.70754 112.203 6.70799L110.498 7.00027C110.494 7.00102 110.489 6.99936 110.486 6.99601C110.483 6.99259 110.483 6.9877 110.484 6.98353L111.391 4.50765L111.399 4.50004C111.402 4.49879 111.406 4.49942 111.409 4.50126Z" fill="#26C1C1"/>
<path fill-rule="evenodd" clip-rule="evenodd" d="M111.403 4.49942C111.407 4.49911 111.411 4.50095 111.414 4.5043C111.417 4.50767 111.417 4.5122 111.416 4.51617L110.508 6.99235C110.507 6.99573 110.504 6.99841 110.501 6.99965C110.497 7.00091 110.493 7.00058 110.49 6.99874L108.226 5.69139C108.222 5.68939 108.22 5.68561 108.219 5.68164C108.219 5.67771 108.221 5.67394 108.224 5.67129L109.349 4.65683L109.356 4.65379L111.403 4.49942Z" fill="#29CDC6"/>
<path fill-rule="evenodd" clip-rule="evenodd" d="M109.537 3.41998L111.41 4.50112C111.415 4.50386 111.417 4.50924 111.416 4.51452C111.415 4.51985 111.41 4.52385 111.405 4.52426L109.358 4.67862C109.354 4.6789 109.351 4.67741 109.348 4.67466C109.346 4.67192 109.344 4.66803 109.345 4.66431L109.519 3.42881L109.521 3.42333C109.522 3.42171 109.524 3.42028 109.526 3.41937C109.529 3.41757 109.534 3.41794 109.537 3.41998Z" fill="#2CD7CB"/>
<path fill-rule="evenodd" clip-rule="evenodd" d="M109.534 3.41831C109.54 3.41992 109.544 3.42605 109.543 3.43231L109.369 4.66781C109.369 4.67171 109.366 4.67507 109.363 4.67694C109.359 4.6788 109.355 4.67894 109.352 4.67725L107.77 3.92706C107.767 3.92555 107.764 3.92273 107.763 3.91945C107.762 3.91613 107.763 3.9124 107.764 3.9094C107.927 3.62861 107.993 3.32091 107.972 3.02312C107.972 3.0191 107.974 3.01502 107.977 3.01246C107.98 3.01 107.984 3.00904 107.988 3.01002L109.534 3.41831Z" fill="#32ECD5"/>
<path fill-rule="evenodd" clip-rule="evenodd" d="M107.781 3.90467L109.362 4.65486C109.366 4.65663 109.369 4.66021 109.369 4.6643C109.37 4.66842 109.369 4.67277 109.365 4.67556L108.24 5.68972C108.237 5.69257 108.232 5.6934 108.228 5.69216C108.224 5.6909 108.221 5.68777 108.219 5.68363L107.763 3.91898C107.762 3.91432 107.764 3.90925 107.767 3.90619C107.771 3.90316 107.776 3.90261 107.781 3.90467Z" fill="#2FE1D0"/>
<path fill-rule="evenodd" clip-rule="evenodd" d="M107.777 3.90354C107.782 3.90422 107.786 3.90807 107.787 3.91298L108.244 5.67732C108.245 5.68247 108.243 5.68778 108.238 5.69072C108.234 5.69365 108.228 5.69358 108.224 5.69042L106.85 4.6446C106.846 4.64174 106.845 4.63702 106.845 4.63242C106.846 4.62781 106.85 4.62398 106.854 4.62267C107.225 4.51537 107.556 4.27037 107.764 3.90993C107.767 3.90557 107.772 3.90289 107.777 3.90354Z" fill="#33F2D7"/>
<path fill-rule="evenodd" clip-rule="evenodd" d="M106.865 4.62454L108.239 5.67036C108.242 5.67274 108.244 5.67647 108.244 5.68041C108.244 5.68437 108.242 5.68816 108.238 5.69045C107.693 6.07722 107.037 6.27965 106.372 6.26984C106.369 6.26975 106.365 6.26778 106.363 6.26467C106.36 6.26152 106.36 6.25745 106.361 6.25371L106.846 4.63093L106.849 4.62576C106.85 4.62441 106.852 4.62333 106.854 4.62271C106.857 4.62144 106.862 4.62206 106.865 4.62454Z" fill="#35F8DA"/>
<path fill-rule="evenodd" clip-rule="evenodd" d="M109.361 2.05736C109.364 2.05855 109.367 2.06136 109.368 2.06497C109.526 2.49911 109.587 2.96636 109.543 3.43169C109.543 3.43529 109.541 3.43872 109.538 3.44082C109.535 3.44291 109.531 3.44356 109.527 3.44265L107.981 3.03437C107.976 3.03313 107.973 3.02938 107.972 3.02463C107.971 3.01984 107.973 3.01492 107.977 3.01214L109.35 2.05888L109.355 2.05675C109.357 2.05647 109.359 2.05677 109.361 2.05736Z" fill="#34F5D9"/>
<path fill-rule="evenodd" clip-rule="evenodd" d="M103.708 1.56795C104.574 0.068694 106.491 -0.445161 107.99 0.420441L108.113 0.494729C108.713 0.878509 109.141 1.43717 109.368 2.06483C109.37 2.07015 109.368 2.07622 109.364 2.07945L107.991 3.03241C107.987 3.03495 107.983 3.03551 107.979 3.03362C107.975 3.0317 107.972 3.0277 107.972 3.02327C107.939 2.55588 107.692 2.11242 107.265 1.83557C106.529 1.3584 105.52 1.60139 105.081 2.36107C104.654 3.10182 104.908 4.04859 105.649 4.47616C106.029 4.69553 106.463 4.73569 106.854 4.6226C106.858 4.62137 106.863 4.62273 106.866 4.62595C106.869 4.62919 106.87 4.63378 106.869 4.63813L106.384 6.2609C106.383 6.26617 106.378 6.26976 106.372 6.26973C105.856 6.26211 105.334 6.1266 104.856 5.85019C103.356 4.98456 102.842 3.06725 103.708 1.56795Z" fill="#37FFDE"/>
<path fill-rule="evenodd" clip-rule="evenodd" d="M114.375 5.237C114.522 4.9824 114.848 4.8954 115.103 5.04245C115.357 5.18959 115.444 5.51512 115.298 5.7698C115.151 6.02456 114.825 6.11192 114.57 5.96496C114.315 5.81781 114.228 5.49183 114.375 5.237Z" fill="#23B8BD"/>
<path fill-rule="evenodd" clip-rule="evenodd" d="M116.066 3.35676L118.354 4.65529C118.359 4.658 118.361 4.66363 118.36 4.66899C118.359 4.67431 118.354 4.67829 118.349 4.67873L116.242 4.83705C116.237 4.83743 116.233 4.83467 116.23 4.83005C116.1 4.55961 115.89 4.32411 115.61 4.16267C115.605 4.15925 115.602 4.15158 115.606 4.14562L116.049 3.36163L116.056 3.35585C116.059 3.35498 116.063 3.3552 116.066 3.35676Z" fill="#23B8BD"/>
<path fill-rule="evenodd" clip-rule="evenodd" d="M116.061 3.35535C116.065 3.35588 116.068 3.35839 116.07 3.36205C116.072 3.36576 116.072 3.37031 116.07 3.37392L115.627 4.15791C115.625 4.16081 115.623 4.16312 115.619 4.164C115.616 4.16483 115.613 4.1644 115.61 4.16278C115.143 3.89309 114.593 3.89455 114.143 4.11833C114.139 4.12047 114.134 4.11989 114.13 4.11681C114.126 4.11368 114.125 4.10846 114.126 4.10372L114.388 3.15471L114.393 3.14771C114.395 3.14615 114.398 3.14524 114.401 3.14558L116.061 3.35535Z" fill="#28CAC5"/>
<path fill-rule="evenodd" clip-rule="evenodd" d="M113.777 2.05819L116.066 3.35672C116.071 3.35967 116.073 3.36601 116.071 3.37164C116.069 3.37724 116.064 3.3809 116.058 3.38016L114.398 3.17039C114.394 3.1699 114.391 3.16768 114.389 3.1643L113.76 2.07524C113.758 2.07038 113.758 2.06431 113.762 2.06033C113.766 2.05639 113.772 2.05549 113.777 2.05819Z" fill="#2BD2C9"/>
<path fill-rule="evenodd" clip-rule="evenodd" d="M113.771 2.05664C113.775 2.05677 113.779 2.05929 113.781 2.06304L114.41 3.15179C114.412 3.15467 114.412 3.15802 114.411 3.16123L114.15 4.11023C114.148 4.11393 114.146 4.11698 114.142 4.11845C114.139 4.11991 114.135 4.11977 114.131 4.11784L112.906 3.41028C112.903 3.40857 112.901 3.40568 112.9 3.40236C112.899 3.39909 112.9 3.39575 112.902 3.39292L113.76 2.06243C113.762 2.05878 113.767 2.05654 113.771 2.05664Z" fill="#2EE1CF"/>
<path fill-rule="evenodd" clip-rule="evenodd" d="M112.457 3.01239L112.92 3.38962C112.924 3.39229 112.925 3.39668 112.925 3.40088C112.924 3.40505 112.922 3.40875 112.918 3.41063C112.688 3.52529 112.443 3.57614 112.201 3.57138C112.197 3.57128 112.193 3.56912 112.191 3.5656C112.189 3.56204 112.188 3.55753 112.19 3.55372L112.438 3.01696C112.44 3.01349 112.443 3.01084 112.447 3.00996C112.45 3.0091 112.454 3.01003 112.457 3.01239Z" fill="#35F6D9"/>
<path fill-rule="evenodd" clip-rule="evenodd" d="M113.774 2.05701C113.778 2.05779 113.781 2.06052 113.783 2.06432C113.784 2.06809 113.784 2.07243 113.782 2.07589L112.923 3.40638C112.921 3.40934 112.918 3.41129 112.914 3.41186C112.911 3.4124 112.907 3.41157 112.905 3.40942L112.442 3.03189C112.439 3.03009 112.438 3.02766 112.437 3.02489L112.336 2.50913C112.334 2.50275 112.338 2.49658 112.345 2.49482C112.615 2.42214 112.776 2.14362 112.704 1.87281C112.703 1.86869 112.704 1.86408 112.707 1.86094C112.709 1.85779 112.714 1.85649 112.718 1.85728L113.774 2.05701Z" fill="#31EAD4"/>
<path d="M113.691 1.49029C113.694 1.4917 113.696 1.49416 113.698 1.4973C113.761 1.67583 113.792 1.86888 113.784 2.06968C113.784 2.0733 113.782 2.07687 113.779 2.07912C113.776 2.0813 113.772 2.08222 113.769 2.08156L112.713 1.88183C112.708 1.88076 112.704 1.8761 112.703 1.87057C112.703 1.86505 112.706 1.85979 112.711 1.85778L113.681 1.48999L113.691 1.49029Z" fill="#34F2D8"/>
<path fill-rule="evenodd" clip-rule="evenodd" d="M111.805 0.484149C112.625 0.264791 113.435 0.75772 113.697 1.49739C113.699 1.50378 113.696 1.51082 113.69 1.51322L112.72 1.88101C112.716 1.88225 112.713 1.88227 112.71 1.88071C112.707 1.87912 112.704 1.87616 112.703 1.87279C112.631 1.60201 112.352 1.4411 112.081 1.51353C111.81 1.58622 111.65 1.86472 111.722 2.13554C111.795 2.40636 112.073 2.56723 112.344 2.4948L112.354 2.49602C112.357 2.49783 112.359 2.50089 112.36 2.50424L112.461 3.02C112.462 3.02256 112.461 3.02524 112.46 3.02761L112.212 3.56437C112.21 3.56883 112.206 3.57173 112.201 3.57168C111.526 3.55841 110.881 3.11177 110.693 2.41138C110.467 1.56666 110.985 0.727087 111.805 0.484149Z" fill="#37FFDE"/>
<path d="M115.709 12.2369C115.713 12.2404 115.715 12.246 115.713 12.2509L114.752 14.6906C114.749 14.6969 114.742 14.6999 114.736 14.6976L112.445 13.8329C112.44 13.8311 112.437 13.8265 112.437 13.8213C112.437 13.6448 112.345 13.4816 112.195 13.3893C112.191 13.387 112.189 13.3825 112.189 13.3781C112.189 13.3736 112.192 13.3694 112.196 13.3674L114.394 12.2354C114.398 12.2335 114.402 12.2336 114.406 12.2357C114.805 12.4658 115.297 12.4657 115.695 12.2357C115.7 12.2331 115.705 12.2335 115.709 12.2369Z" fill="#21AFB8"/>
<path d="M112.453 13.8098L114.744 14.6745C114.749 14.6761 114.752 14.6798 114.752 14.6842C114.753 14.6887 114.751 14.6934 114.747 14.6961L111.063 17.45C111.059 17.4528 111.054 17.4532 111.049 17.4512C111.045 17.4491 111.042 17.4446 111.042 17.4399V15.2243C111.042 15.0357 111.142 14.8613 111.305 14.7655L112.182 14.2613C112.339 14.1708 112.436 14.0028 112.436 13.8214C112.436 13.8173 112.438 13.8134 112.442 13.811C112.445 13.8087 112.45 13.8084 112.453 13.8098Z" fill="#1FA7B5"/>
<path d="M121.555 6.47191L130.558 11.5811L130.634 11.6258C131.408 12.0997 131.883 12.9441 131.883 13.856C131.883 14.7973 131.376 15.6664 130.557 16.1306L114.946 24.9773C114.137 25.4355 113.144 25.4295 112.341 24.9615C111.537 24.4932 111.043 23.633 111.042 22.703V17.4337L111.047 17.4297L114.729 14.678L115.689 12.2417L115.691 12.2378L115.695 12.2356L117.317 11.2991L117.323 11.2955L117.33 11.2991C117.902 11.6269 118.599 11.7374 119.286 11.5534C120.624 11.1947 121.436 9.85143 121.149 8.5121L121.123 8.41406C121.06 8.18755 120.967 7.97568 120.851 7.78139L120.847 7.7753L120.85 7.76922L121.538 6.47709L121.544 6.46582L121.555 6.47191Z" fill="#1EA5B4"/>
</svg>
