<svg width="200" height="178" viewBox="0 0 200 178" fill="none" xmlns="http://www.w3.org/2000/svg">
<path fill-rule="evenodd" clip-rule="evenodd" d="M64.8481 78.1146L77.7611 85.5783C77.7887 85.5943 77.8066 85.6252 77.8058 85.6571C77.8049 85.6885 77.7867 85.717 77.7589 85.7316L62.3822 93.6511C62.353 93.6661 62.3172 93.6639 62.2906 93.6447C62.264 93.6254 62.2513 93.592 62.2565 93.5595L64.7182 78.1764L64.7331 78.1359C64.7414 78.1249 64.7543 78.1165 64.7671 78.1103C64.7929 78.0984 64.8235 78.1004 64.8481 78.1146Z" fill="#1EA5B4"/>
<path fill-rule="evenodd" clip-rule="evenodd" d="M64.8573 78.119C64.8824 78.1383 64.8939 78.1707 64.8892 78.202L62.4276 93.5873C62.423 93.6156 62.4045 93.641 62.3786 93.6533C62.3528 93.6654 62.3224 93.6633 62.2977 93.6491L56.2798 90.1781C55.7672 89.8821 55.312 89.7332 54.8574 89.7309C54.4029 89.7286 53.9385 89.8726 53.4093 90.1781C53.3808 90.194 53.345 90.192 53.3178 90.1738C53.2907 90.1554 53.2754 90.1232 53.2794 90.0907L54.2398 82.8698C54.2438 82.8398 54.2634 82.814 54.2909 82.8016L64.7678 78.1105C64.7971 78.0974 64.8319 78.0995 64.8573 78.119Z" fill="#23B6BC"/>
<path fill-rule="evenodd" clip-rule="evenodd" d="M51.1635 74.4605C53.4421 73.1457 56.2507 73.1455 58.5292 74.4605L64.8473 78.1126C64.8757 78.1289 64.8916 78.1608 64.8899 78.1935C64.8882 78.2262 64.8687 78.2546 64.8388 78.268L54.3619 82.9613C54.3402 82.9708 54.3157 82.9703 54.2938 82.9613C54.2717 82.9521 54.2533 82.9347 54.2448 82.9123L51.1251 74.567C51.1102 74.5271 51.1265 74.4819 51.1635 74.4605Z" fill="#20AEB8"/>
<path fill-rule="evenodd" clip-rule="evenodd" d="M51.2877 74.5068L54.4095 82.85C54.4145 82.8634 54.4156 82.8784 54.4138 82.8926L53.4534 90.1136C53.4496 90.1401 53.434 90.1641 53.4108 90.1775L46.0578 94.4215C46.0378 94.433 46.012 94.436 45.9897 94.43C45.968 94.424 45.95 94.4088 45.9385 94.3895L38.6665 81.7747C38.6424 81.7329 38.6567 81.6795 38.6984 81.6554L51.1621 74.4621C51.1843 74.4493 51.2125 74.4449 51.2366 74.4536C51.2605 74.4624 51.2788 74.483 51.2877 74.5068Z" fill="#2ACFC7"/>
<path fill-rule="evenodd" clip-rule="evenodd" d="M38.7311 81.6435C38.7657 81.6394 38.7988 81.658 38.8162 81.6882L46.0904 94.301C46.1058 94.3276 46.1055 94.3614 46.0904 94.3883C46.0753 94.4149 46.0465 94.4323 46.0159 94.433L34.9619 94.5671C34.9342 94.5675 34.9062 94.5552 34.8895 94.5331C34.8731 94.5112 34.8692 94.4827 34.8767 94.4564L38.6587 81.7053L38.6863 81.6648C38.699 81.6542 38.7139 81.6456 38.7311 81.6435Z" fill="#2DD9CC"/>
<path fill-rule="evenodd" clip-rule="evenodd" d="M46.0694 94.279C46.0854 94.2927 46.0965 94.3121 46.0992 94.3344C46.3603 96.6466 46.1707 98.9351 45.5903 101.095C45.5828 101.123 45.5623 101.148 45.5349 101.157L38.7675 103.431C38.7369 103.441 38.7035 103.433 38.6802 103.41L34.515 99.3897C34.4886 99.3642 34.4809 99.3252 34.4958 99.2917C35.1455 97.838 35.319 96.1603 34.8749 94.5026C34.8679 94.4766 34.8736 94.4495 34.8898 94.428C34.9061 94.4066 34.931 94.3922 34.9579 94.3918L46.0119 94.2577L46.0694 94.279Z" fill="#31EBD4"/>
<path fill-rule="evenodd" clip-rule="evenodd" d="M45.5665 101.01C45.5899 101.032 45.6004 101.066 45.592 101.097C44.7575 104.203 43.1139 107.044 40.8391 109.317C40.818 109.338 40.7873 109.347 40.7582 109.34C40.729 109.333 40.7042 109.313 40.6943 109.285L38.6585 103.378C38.651 103.356 38.6525 103.33 38.6628 103.31C38.6731 103.289 38.6919 103.272 38.7139 103.265L45.4792 100.991C45.5094 100.98 45.5431 100.988 45.5665 101.01Z" fill="#34F6D9"/>
<path fill-rule="evenodd" clip-rule="evenodd" d="M28.9533 78.103L29.0087 78.1264C29.0235 78.1406 29.0324 78.16 29.0342 78.1818L29.8967 89.3252C29.8988 89.3534 29.8865 89.3817 29.8647 89.3997C29.843 89.4176 29.8131 89.4241 29.7859 89.4167C28.6057 89.0998 27.3288 89.0778 26.0637 89.4167C22.2279 90.4453 19.951 94.3902 20.9785 98.2263C22.0068 102.062 25.9499 104.336 29.7859 103.309C31.9644 102.726 33.6421 101.204 34.4963 99.2931L34.5218 99.2591C34.5324 99.2509 34.5446 99.2447 34.558 99.242C34.586 99.2366 34.6164 99.2457 34.6368 99.2655L38.8021 103.286L38.8233 103.32L40.8591 109.227C40.87 109.259 40.8614 109.295 40.8378 109.319C38.6462 111.508 35.8676 113.169 32.6607 114.029C22.9064 116.642 12.8793 110.851 10.2652 101.097C7.65194 91.3425 13.4389 81.3131 23.1932 78.6992C24.8812 78.247 26.5775 78.0467 28.2421 78.0753L28.9533 78.103Z" fill="#37FFDE"/>
<path fill-rule="evenodd" clip-rule="evenodd" d="M28.9521 78.1018C32.544 78.3046 35.9602 79.57 38.7923 81.6601C38.8219 81.6819 38.8347 81.7207 38.8243 81.7559L35.0424 94.5049C35.0313 94.5424 34.9962 94.5672 34.9572 94.5667C34.9183 94.566 34.8842 94.5404 34.8741 94.5028C34.1852 91.9316 32.1862 90.0603 29.7869 89.4156C29.7513 89.406 29.7239 89.3756 29.7209 89.3389L28.8606 78.1955C28.8587 78.1705 28.8686 78.1452 28.8861 78.1273C28.9035 78.1099 28.9276 78.1006 28.9521 78.1018Z" fill="#34F3D8"/>
<path fill-rule="evenodd" clip-rule="evenodd" d="M105.307 56.2015C109.236 55.1497 113.279 57.481 114.332 61.4102C115.383 65.3387 113.047 69.3773 109.119 70.4305C105.218 71.2716 101.177 69.2462 100.098 65.2219C99.2796 61.3178 101.269 57.2849 105.307 56.2015Z" fill="#21AFB8"/>
<path fill-rule="evenodd" clip-rule="evenodd" d="M127.702 45.2579C127.735 45.2506 127.769 45.2633 127.79 45.2899C127.81 45.3169 127.814 45.3534 127.798 45.3836L122.992 54.4209C122.977 54.4486 122.949 54.4668 122.917 54.4678C122.886 54.4686 122.857 54.4521 122.841 54.4252C121.248 51.7722 119.014 49.5884 116.41 48.0262C116.379 48.0079 116.364 47.9719 116.369 47.9368C116.375 47.9019 116.401 47.8745 116.435 47.8665L127.702 45.2579Z" fill="#20ABB6"/>
<path fill-rule="evenodd" clip-rule="evenodd" d="M105.372 32.5589L127.765 45.2674C127.796 45.2851 127.812 45.3198 127.808 45.3547C127.803 45.3899 127.776 45.4187 127.742 45.4271L116.475 48.0357C116.453 48.0408 116.428 48.0367 116.409 48.0251C112.094 45.4379 106.761 44.5589 101.632 46.0851C101.602 46.0942 101.568 46.0861 101.545 46.0638C101.523 46.0416 101.515 46.009 101.524 45.9787L105.244 32.6121L105.263 32.578C105.272 32.5682 105.283 32.5598 105.295 32.5546C105.32 32.5444 105.349 32.5457 105.372 32.5589Z" fill="#22B4BB"/>
<path fill-rule="evenodd" clip-rule="evenodd" d="M105.321 32.5481C105.349 32.546 105.377 32.5583 105.395 32.5801C105.413 32.6021 105.42 32.6315 105.412 32.6589L101.69 46.0254C101.678 46.0686 101.636 46.0949 101.592 46.0872L90.2058 44.0408C90.1779 44.0358 90.1539 44.0176 90.1419 43.9918C90.1302 43.9662 90.1322 43.9375 90.1462 43.913C92.0075 40.6885 92.0221 36.9013 90.5188 33.7811C90.5067 33.7553 90.5067 33.725 90.521 33.7002C90.5354 33.6752 90.5625 33.6598 90.5913 33.6576L105.321 32.5481Z" fill="#20A9B6"/>
<path fill-rule="evenodd" clip-rule="evenodd" d="M101.622 45.9169C101.661 45.9239 101.691 45.956 101.694 45.9957C101.697 46.0353 101.672 46.0725 101.635 46.0851C97.4617 47.433 94.0903 50.1777 91.9009 53.6553C91.8816 53.6859 91.8447 53.7007 91.8093 53.6936C91.774 53.6865 91.7473 53.6588 91.7411 53.6234L90.1355 43.9706C90.1309 43.9428 90.1391 43.9138 90.159 43.8939C90.1791 43.8741 90.2078 43.8656 90.2356 43.8705L101.622 45.9169Z" fill="#23B8BD"/>
<path fill-rule="evenodd" clip-rule="evenodd" d="M69.8931 39.0372C69.925 39.0495 69.9464 39.0797 69.9484 39.1139C70.1537 42.6308 72.0725 45.981 75.3509 47.8745C80.5305 50.8635 87.1549 49.0897 90.1463 43.9115L90.1846 43.8775C90.2007 43.87 90.2196 43.8656 90.2379 43.869C90.2737 43.8758 90.3021 43.9053 90.3081 43.9414L91.9137 53.5942C91.9209 53.6374 91.8939 53.6795 91.852 53.6921L69.8867 60.1827C69.8478 60.1942 69.8066 60.1775 69.7866 60.1422L62.2654 46.8715C62.2468 46.8379 62.2535 46.7968 62.2803 46.7693L69.7994 39.0564L69.842 39.033C69.8584 39.0291 69.8766 39.0311 69.8931 39.0372Z" fill="#23B7BC"/>
<path fill-rule="evenodd" clip-rule="evenodd" d="M91.8956 53.5555C91.9176 53.5845 91.9192 53.6249 91.8999 53.6556C90.0971 56.5195 89.0957 59.8807 89.1082 63.368C89.1083 63.3993 89.0926 63.429 89.0656 63.4447L84.4873 66.0852C83.6314 66.5793 82.9641 66.8407 82.2854 66.8433C81.6063 66.8457 80.9284 66.589 80.0559 66.0852L69.8196 60.176C69.7897 60.1587 69.7712 60.1251 69.7749 60.0908C69.779 60.0564 69.8035 60.0264 69.8366 60.0163L91.802 53.5257C91.8364 53.5155 91.8737 53.5272 91.8956 53.5555Z" fill="#26C1C1"/>
<path fill-rule="evenodd" clip-rule="evenodd" d="M62.3257 46.744C62.3619 46.7377 62.3991 46.7545 62.4172 46.7865L69.9363 60.0573C69.9556 60.0913 69.951 60.1339 69.9236 60.1616C69.8956 60.1893 69.8511 60.1962 69.8171 60.1765L50.373 48.9501C50.3412 48.9317 50.324 48.8947 50.3304 48.8585C50.337 48.8225 50.3647 48.7945 50.4007 48.7882L62.3257 46.744Z" fill="#29CCC6"/>
<path fill-rule="evenodd" clip-rule="evenodd" d="M56.8058 31.4815L69.9041 39.0432C69.9274 39.0567 69.943 39.0804 69.9467 39.1071C69.9501 39.1335 69.9419 39.1604 69.9233 39.1795L62.4042 46.8902C62.3913 46.9034 62.3733 46.9127 62.3552 46.9158L50.4302 48.9601C50.3999 48.9653 50.3693 48.9537 50.3493 48.9302C50.3294 48.9063 50.3237 48.8722 50.3344 48.8429L56.6802 31.5263L56.7313 31.473C56.7555 31.4642 56.7835 31.4687 56.8058 31.4815Z" fill="#26C1C1"/>
<path fill-rule="evenodd" clip-rule="evenodd" d="M56.7559 31.4687C56.7853 31.4665 56.8146 31.4794 56.8325 31.5028C56.8503 31.5263 56.8553 31.558 56.8453 31.5858L50.4974 48.9046C50.4884 48.9283 50.4701 48.947 50.4463 48.9557C50.4221 48.9645 50.3941 48.9622 50.3718 48.9493L34.5329 39.8055C34.5087 39.7915 34.4911 39.7651 34.4882 39.7373C34.4855 39.7098 34.4974 39.6835 34.518 39.6649L42.3906 32.5696L42.4417 32.5483L56.7559 31.4687Z" fill="#29CDC6"/>
<path fill-rule="evenodd" clip-rule="evenodd" d="M43.7055 23.9194L56.8059 31.4811C56.8385 31.5002 56.8545 31.5379 56.8464 31.5748C56.8378 31.6121 56.8057 31.6401 56.7676 31.6429L42.4534 32.7226C42.4271 32.7245 42.4011 32.7141 42.3831 32.6949C42.3653 32.6757 42.356 32.6485 42.3597 32.6225L43.5756 23.9812L43.5926 23.9429C43.6009 23.9315 43.6115 23.9215 43.6246 23.9152C43.6505 23.9025 43.6805 23.9051 43.7055 23.9194Z" fill="#2CD7CB"/>
<path fill-rule="evenodd" clip-rule="evenodd" d="M43.6864 23.9088C43.7291 23.9201 43.7565 23.963 43.7503 24.0067L42.5344 32.6481C42.5304 32.6753 42.514 32.6989 42.4897 32.7119C42.4653 32.7249 42.4358 32.7259 42.4109 32.7141L31.3462 27.4671C31.3246 27.4566 31.3087 27.4368 31.3015 27.4139C31.2944 27.3907 31.2979 27.3646 31.31 27.3436C32.444 25.3797 32.9073 23.2276 32.7623 21.1448C32.7604 21.1167 32.7726 21.0882 32.7943 21.0702C32.8157 21.053 32.8443 21.0463 32.8709 21.0532L43.6864 23.9088Z" fill="#32ECD5"/>
<path fill-rule="evenodd" clip-rule="evenodd" d="M31.4224 27.3096L42.4849 32.5566C42.5111 32.569 42.5295 32.594 42.5339 32.6226C42.5381 32.6514 42.5279 32.6818 42.5062 32.7014L34.6336 39.7946C34.611 39.8145 34.5795 39.8203 34.5506 39.8116C34.5219 39.8028 34.4988 39.7809 34.491 39.752L31.2989 27.4097C31.2908 27.3771 31.3028 27.3417 31.3287 27.3202C31.3548 27.2991 31.392 27.2952 31.4224 27.3096Z" fill="#2FE1D0"/>
<path fill-rule="evenodd" clip-rule="evenodd" d="M31.3949 27.301C31.43 27.3058 31.4584 27.3328 31.4673 27.367L34.6594 39.7072C34.6687 39.7432 34.6541 39.7803 34.6232 39.8009C34.5924 39.8214 34.5526 39.8209 34.5231 39.7988L24.9129 32.4841C24.887 32.4641 24.8749 32.4311 24.8809 32.3989C24.8871 32.3667 24.9111 32.3399 24.9427 32.3308C27.5345 31.5803 29.8512 29.8667 31.3076 27.3457C31.3252 27.3152 31.36 27.2965 31.3949 27.301Z" fill="#33F2D7"/>
<path fill-rule="evenodd" clip-rule="evenodd" d="M25.0184 32.3448L34.6265 39.6595C34.6484 39.6762 34.6608 39.7022 34.6606 39.7298C34.6601 39.7575 34.647 39.784 34.6244 39.8C30.8117 42.5052 26.2226 43.921 21.573 43.8524C21.546 43.8517 21.5208 43.838 21.5048 43.8162C21.4887 43.7941 21.4842 43.7657 21.492 43.7395L24.8821 32.3895L24.9034 32.3533C24.9129 32.3439 24.9244 32.3364 24.9375 32.3321C24.9647 32.3232 24.9956 32.3275 25.0184 32.3448Z" fill="#35F8DA"/>
<path fill-rule="evenodd" clip-rule="evenodd" d="M42.4755 14.3887C42.5009 14.3971 42.5217 14.4168 42.5308 14.442C43.6304 17.4784 44.0582 20.7465 43.751 24.0011C43.7486 24.0263 43.7354 24.0503 43.7148 24.065C43.6939 24.0795 43.6671 24.0841 43.6424 24.0777L32.8269 21.2221C32.7942 21.2135 32.7691 21.1872 32.763 21.154C32.7571 21.1205 32.7713 21.0861 32.7992 21.0667L42.3988 14.3994L42.435 14.3845C42.4481 14.3825 42.4626 14.3846 42.4755 14.3887Z" fill="#34F5D9"/>
<path fill-rule="evenodd" clip-rule="evenodd" d="M2.94043 10.9665C8.99501 0.480458 22.4048 -3.11354 32.8912 2.94064L33.7472 3.46022C37.9474 6.14445 40.9394 10.0518 42.5291 14.4418C42.5426 14.479 42.5296 14.5214 42.4972 14.544L32.8976 21.2092C32.872 21.2269 32.8384 21.2309 32.8103 21.2177C32.7822 21.2043 32.7638 21.1762 32.7613 21.1453C32.5337 17.8763 30.8073 14.7747 27.821 12.8383C22.6736 9.50088 15.6127 11.2004 12.5464 16.5137C9.55676 21.6947 11.333 28.3166 16.5136 31.307C19.1717 32.8413 22.2095 33.1222 24.9419 32.3313C24.9724 32.3227 25.0048 32.3322 25.0271 32.3547C25.0494 32.3774 25.0575 32.4095 25.0484 32.4399L21.6583 43.7899C21.6471 43.8267 21.6138 43.8518 21.5753 43.8516C17.9645 43.7983 14.316 42.8505 10.9663 40.9172C0.480181 34.8629 -3.11324 21.4529 2.94043 10.9665Z" fill="#37FFDE"/>
<path fill-rule="evenodd" clip-rule="evenodd" d="M77.5385 36.6288C78.5683 34.8481 80.8484 34.2396 82.6301 35.2681C84.4097 36.2973 85.0212 38.574 83.995 40.3554C82.9661 42.1372 80.6857 42.7482 78.9035 41.7203C77.1215 40.6911 76.5097 38.4112 77.5385 36.6288Z" fill="#23B8BD"/>
<path fill-rule="evenodd" clip-rule="evenodd" d="M89.3667 23.4771L105.372 32.5592C105.405 32.5781 105.423 32.6175 105.414 32.655C105.406 32.6922 105.373 32.7201 105.335 32.7231L90.6039 33.8305C90.5681 33.8331 90.5343 33.8138 90.5187 33.7815C89.6073 31.89 88.1378 30.2429 86.1831 29.1137C86.1417 29.0898 86.1255 29.0361 86.1491 28.9945L89.2495 23.5111L89.3006 23.4707C89.3225 23.4646 89.3468 23.4662 89.3667 23.4771Z" fill="#23B8BD"/>
<path fill-rule="evenodd" clip-rule="evenodd" d="M89.3358 23.4673C89.3643 23.4709 89.3887 23.4885 89.4018 23.5141C89.4148 23.5401 89.4139 23.5719 89.3996 23.5972L86.3013 29.0805C86.2898 29.1008 86.2705 29.117 86.2481 29.1231C86.226 29.1289 86.2019 29.1259 86.182 29.1146C82.914 27.2283 79.0672 27.2385 75.9245 28.8037C75.8939 28.8186 75.8572 28.8146 75.8308 28.793C75.8042 28.7711 75.7939 28.7346 75.8031 28.7014L77.6344 22.064L77.6706 22.015C77.6872 22.0041 77.7072 21.9977 77.7281 22.0001L89.3358 23.4673Z" fill="#28CAC5"/>
<path fill-rule="evenodd" clip-rule="evenodd" d="M73.3643 14.3951L89.3693 23.4772C89.4053 23.4979 89.4207 23.5422 89.4076 23.5816C89.3943 23.6208 89.3551 23.6464 89.3139 23.6412L77.7084 22.174C77.6814 22.1706 77.656 22.1551 77.6424 22.1314L73.2472 14.5144C73.2278 14.4804 73.2324 14.4379 73.26 14.41C73.2875 14.3825 73.3303 14.3762 73.3643 14.3951Z" fill="#2BD2C9"/>
<path fill-rule="evenodd" clip-rule="evenodd" d="M73.3231 14.3845C73.3533 14.3854 73.3803 14.403 73.3955 14.4293L77.7928 22.0442C77.8044 22.0643 77.8074 22.0878 77.8013 22.1102L75.97 28.7477C75.9628 28.7736 75.9437 28.7949 75.9189 28.8052C75.8939 28.8154 75.8656 28.8144 75.8422 28.8009L67.2712 23.8521C67.2505 23.8401 67.2342 23.8199 67.2286 23.7967C67.2233 23.7739 67.2287 23.7505 67.2413 23.7307L73.2464 14.425C73.2629 14.3995 73.2927 14.3838 73.3231 14.3845Z" fill="#2EE1CF"/>
<path fill-rule="evenodd" clip-rule="evenodd" d="M64.1308 21.0703L67.3697 23.7086C67.3926 23.7273 67.4049 23.758 67.4016 23.7874C67.3981 23.8166 67.3789 23.8424 67.3526 23.8556C65.7471 24.6575 64.0299 25.0132 62.3399 24.9799C62.3107 24.9792 62.2831 24.9641 62.2675 24.9395C62.2519 24.9146 62.2511 24.8831 62.2632 24.8564L63.9966 21.1022C64.0078 21.0779 64.0302 21.0594 64.0562 21.0532C64.0822 21.0472 64.11 21.0537 64.1308 21.0703Z" fill="#35F6D9"/>
<path fill-rule="evenodd" clip-rule="evenodd" d="M73.3364 14.3867C73.3648 14.3922 73.3889 14.4112 73.4003 14.4378C73.4115 14.4641 73.4092 14.4945 73.3939 14.5187L67.3867 23.8244C67.3734 23.8451 67.3514 23.8587 67.3271 23.8627C67.3031 23.8665 67.278 23.8607 67.259 23.8457L64.0201 21.2052C64.0048 21.1926 63.9943 21.1756 63.9903 21.1562L63.279 17.5489C63.2702 17.5042 63.297 17.4611 63.3408 17.4488C65.2345 16.9404 66.3602 14.9924 65.8535 13.0983C65.8458 13.0695 65.8525 13.0373 65.8727 13.0153C65.8931 12.9933 65.9241 12.9842 65.9536 12.9897L73.3364 14.3867Z" fill="#31EAD4"/>
<path d="M72.7598 10.4228C72.781 10.4326 72.7988 10.4499 72.8067 10.4718C73.2487 11.7205 73.4673 13.0707 73.4093 14.4752C73.4083 14.5005 73.3951 14.5254 73.3752 14.5412C73.3555 14.5565 73.3295 14.5629 73.305 14.5582L65.9222 13.1613C65.8841 13.1538 65.8553 13.1212 65.8519 13.0825C65.8486 13.0439 65.8712 13.0071 65.9073 12.9931L72.6938 10.4207L72.7598 10.4228Z" fill="#34F2D8"/>
<path fill-rule="evenodd" clip-rule="evenodd" d="M59.5743 3.38587C65.3038 1.85164 70.9732 5.29927 72.8046 10.4727C72.8204 10.5174 72.7978 10.5666 72.7535 10.5834L65.9691 13.1558C65.9462 13.1644 65.9206 13.1646 65.8988 13.1537C65.877 13.1425 65.8606 13.1218 65.8541 13.0983C65.346 11.2044 63.3978 10.079 61.5036 10.5855C59.6099 11.094 58.4861 13.0418 58.993 14.936C59.5008 16.8301 61.449 17.9553 63.3435 17.4488L63.4116 17.4573C63.4319 17.4699 63.4451 17.4913 63.4499 17.5148L64.1612 21.1221C64.1646 21.14 64.1624 21.1587 64.1548 21.1753L62.4214 24.9295C62.407 24.9607 62.3747 24.9809 62.3405 24.9806C57.6223 24.8878 53.1063 21.7639 51.7933 16.8653C50.2111 10.9571 53.8358 5.08502 59.5743 3.38587Z" fill="#37FFDE"/>
<path d="M86.8778 85.5885C86.9058 85.6126 86.9168 85.652 86.9034 85.6864L80.1807 102.75C80.1631 102.794 80.1143 102.815 80.07 102.799L64.0458 96.751C64.0121 96.7382 63.9907 96.7061 63.9904 96.6701C63.9904 95.435 63.3456 94.2938 62.2975 93.6484C62.2707 93.6319 62.2537 93.6011 62.2549 93.5696C62.2564 93.5385 62.274 93.5094 62.3018 93.4951L77.6786 85.5778C77.7049 85.5643 77.736 85.5652 77.7616 85.5799C80.5492 87.1889 83.9901 87.1886 86.7777 85.5799C86.8097 85.5615 86.8497 85.5645 86.8778 85.5885Z" fill="#21AFB8"/>
<path d="M64.1067 96.5888L80.1308 102.636C80.1599 102.648 80.1815 102.674 80.1862 102.705C80.1906 102.736 80.1773 102.769 80.1521 102.788L54.3793 122.049C54.3531 122.068 54.3171 122.071 54.2877 122.057C54.2582 122.042 54.2388 122.011 54.2388 121.978V106.482C54.2387 105.163 54.938 103.943 56.0722 103.273L62.2093 99.7468C63.3088 99.1136 63.9858 97.9388 63.9874 96.6697C63.9874 96.6411 64.0022 96.6136 64.0257 96.5973C64.0493 96.5811 64.0799 96.5787 64.1067 96.5888Z" fill="#1FA7B5"/>
<path d="M127.765 45.2665L190.732 81.0008L191.263 81.3138C196.677 84.6286 199.999 90.5341 200 96.912C199.999 103.496 196.456 109.574 190.728 112.821L81.5384 174.697C75.8794 177.901 68.9406 177.859 63.3209 174.586C57.7008 171.311 54.2402 165.294 54.2388 158.79V121.935L54.2728 121.907L80.0265 102.662L86.7385 85.6217L86.7513 85.594L86.7768 85.5791L98.1268 79.0289L98.1694 79.0033L98.212 79.0289C102.215 81.3216 107.09 82.0944 111.898 80.807C121.256 78.2988 126.93 68.9034 124.924 59.5359L124.747 58.8502C124.304 57.266 123.655 55.7841 122.839 54.4252L122.814 54.3826L122.837 54.3401L127.643 45.3027L127.686 45.2239L127.765 45.2665Z" fill="#1EA5B4"/>
</svg>
