<svg width="200" height="118" viewBox="0 0 200 118" fill="none" xmlns="http://www.w3.org/2000/svg">
<path d="M113.459 96.1819C121.179 96.1819 121.259 108.091 113.4 108.091L118.921 114.593C120.645 116.709 118.138 119.053 116.059 116.939L109.549 109.294C108.909 108.524 108.424 107.885 108.424 106.831C108.424 105.52 109.393 105.095 110.593 105.095H113.827C117.539 105.094 117.783 99.6886 113.827 99.6881H105.19V116.073C105.19 118.311 101.684 118.346 101.684 116.107V97.856C101.684 96.6947 102.136 96.1819 103.35 96.1819H113.459Z" fill="#D9D9D9"/>
<path d="M42.7668 96.182C50.8028 96.1822 50.834 108.601 42.7994 108.601H35.8229V115.878C35.8226 118.352 32.3854 118.414 32.3852 115.878V107.599C32.3853 105.986 32.8616 105.095 34.5547 105.095H43.1335C47.1322 105.095 46.8797 99.6882 43.1335 99.6882H33.9875C31.7974 99.6882 31.6151 96.1821 33.9533 96.182H42.7668Z" fill="#D9D9D9"/>
<path d="M136.076 96.1819C144.108 96.1819 144.151 108.601 136.11 108.601H129.132V115.877C129.131 118.35 125.694 118.384 125.694 115.877V107.599C125.694 105.987 126.172 105.095 127.864 105.095H136.442C140.443 105.095 140.19 99.6881 136.442 99.6881H127.296C125.036 99.6881 125.02 96.1823 127.262 96.1819H136.076Z" fill="#1EA5B4"/>
<path d="M54.9919 97.6849C54.9919 95.4613 58.4638 95.4396 58.4638 97.6849V105.095H67.3426V97.6849C67.3426 95.4322 70.7819 95.4766 70.7819 97.6849V116.011C70.7816 118.208 67.3428 118.261 67.3426 116.011V108.601H58.4638V116.011C58.4635 118.199 54.9922 118.315 54.9919 116.011V97.6849Z" fill="#D9D9D9"/>
<path d="M21.7069 97.6849C21.7069 95.4312 25.1463 95.4822 25.1463 97.6849V116.011C25.146 118.203 21.7072 118.262 21.7069 116.011V97.6849Z" fill="#D9D9D9"/>
<path d="M184.604 98.6025C183.531 96.6802 186.407 94.8649 187.589 96.891L192.178 104.748L196.717 96.8829C197.899 94.8648 200.911 96.7202 199.731 98.6074L193.905 107.991V116.011C193.905 118.203 190.466 118.262 190.466 116.011V107.988L184.604 98.6025Z" fill="#1EA5B4"/>
<path d="M171.995 98.2618C171.112 96.2017 174.436 95.0741 175.297 97.1583L182.898 115.397C183.743 117.511 180.451 118.617 179.581 116.51L179.569 116.481L178.565 114.176H167.724L166.666 116.469C165.756 118.516 162.447 117.534 163.347 115.432L167.113 107.075C168.022 105.03 171.401 106.001 170.448 108.068L170.431 108.102L170.417 108.138L169.113 111.338H177.437L172.003 98.2781L171.995 98.2618Z" fill="#1EA5B4"/>
<path d="M13.1868 96.182C15.7822 96.1823 15.9013 99.7548 13.1868 99.755C11.0345 99.755 8.8052 99.749 6.90475 100.903C4.99593 102.074 3.6056 104.088 3.6056 106.798C3.60571 108.739 4.34969 110.448 5.52739 111.713C7.51148 113.825 10.3642 114.01 13.0858 114.01C15.9098 114.01 15.8149 117.514 13.0858 117.514C9.29661 117.514 5.51602 116.885 2.80689 113.982C1.02642 111.971 8.82183e-05 109.434 0 106.732C0 103.356 1.51851 100.382 4.13046 98.4266C6.77066 96.4771 10.0102 96.182 13.1868 96.182Z" fill="#D9D9D9"/>
<path d="M93.2468 96.182C95.4774 96.1826 95.5422 99.6876 93.2468 99.6882H81.3949V105.33H93.4456C95.3347 105.33 95.2465 108.401 93.4456 108.401H81.3949V114.01H93.3136C95.6246 114.01 95.6315 117.513 93.3136 117.514H79.6932C78.4647 117.514 77.9899 116.998 77.9898 115.778V97.918C77.9899 96.6852 78.4533 96.182 79.6932 96.182H93.2468Z" fill="#D9D9D9"/>
<path d="M148.301 97.6848C148.301 95.4317 151.706 95.4909 151.706 97.6848V114.009H157.013C159.105 114.009 159.115 117.514 157.013 117.514H150.004C148.776 117.514 148.301 116.998 148.301 115.778V97.6848Z" fill="#1EA5B4"/>
<path fill-rule="evenodd" clip-rule="evenodd" d="M83.0918 35.8233L89.0137 39.2461C89.0264 39.2535 89.0346 39.2676 89.0342 39.2823C89.0338 39.2967 89.0255 39.3097 89.0127 39.3164L81.961 42.9483C81.9476 42.9552 81.9312 42.9542 81.919 42.9453C81.9068 42.9365 81.901 42.9212 81.9034 42.9063L83.0323 35.8516L83.0391 35.833C83.0429 35.828 83.0488 35.8241 83.0547 35.8213C83.0665 35.8159 83.0806 35.8168 83.0918 35.8233Z" fill="#1EA5B4"/>
<path fill-rule="evenodd" clip-rule="evenodd" d="M83.096 35.8252C83.1075 35.8341 83.1128 35.8489 83.1106 35.8633L81.9817 42.919C81.9797 42.932 81.9712 42.9436 81.9593 42.9492C81.9474 42.9548 81.9335 42.9538 81.9222 42.9473L79.1624 41.3555C78.9273 41.2197 78.7186 41.1515 78.5101 41.1504C78.3017 41.1494 78.0886 41.2154 77.846 41.3555C77.8329 41.3628 77.8165 41.3619 77.804 41.3535C77.7916 41.3451 77.7846 41.3303 77.7864 41.3154L78.2269 38.0039C78.2287 37.9902 78.2376 37.9783 78.2503 37.9727L83.055 35.8213C83.0684 35.8153 83.0843 35.8163 83.096 35.8252Z" fill="#23B6BC"/>
<path fill-rule="evenodd" clip-rule="evenodd" d="M76.816 34.1475C77.861 33.5445 79.149 33.5444 80.1939 34.1475L83.0914 35.8223C83.1044 35.8298 83.1117 35.8444 83.1109 35.8594C83.1101 35.8744 83.1012 35.8874 83.0875 35.8935L78.2828 38.0459C78.2728 38.0503 78.2616 38.05 78.2515 38.0459C78.2414 38.0417 78.233 38.0337 78.2291 38.0234L76.7984 34.1963C76.7916 34.178 76.7991 34.1572 76.816 34.1475Z" fill="#20AEB8"/>
<path fill-rule="evenodd" clip-rule="evenodd" d="M76.873 34.1687L78.3047 37.9949C78.307 38.001 78.3075 38.0079 78.3066 38.0144L77.8662 41.3259C77.8645 41.3381 77.8573 41.3491 77.8467 41.3552L74.4746 43.3015C74.4654 43.3068 74.4536 43.3082 74.4433 43.3054C74.4334 43.3027 74.4252 43.2957 74.4199 43.2869L71.0849 37.5017C71.0739 37.4826 71.0805 37.4581 71.0996 37.447L76.8154 34.1482C76.8256 34.1423 76.8385 34.1403 76.8496 34.1443C76.8605 34.1483 76.8689 34.1578 76.873 34.1687Z" fill="#2ACFC7"/>
<path fill-rule="evenodd" clip-rule="evenodd" d="M71.1145 37.4415C71.1304 37.4397 71.1456 37.4482 71.1536 37.462L74.4895 43.2462C74.4965 43.2585 74.4964 43.274 74.4895 43.2863C74.4825 43.2985 74.4693 43.3064 74.4553 43.3068L69.386 43.3683C69.3733 43.3685 69.3604 43.3628 69.3528 43.3527C69.3452 43.3426 69.3435 43.3296 69.3469 43.3175L71.0813 37.4699L71.094 37.4513C71.0998 37.4464 71.1066 37.4425 71.1145 37.4415Z" fill="#2DD9CC"/>
<path fill-rule="evenodd" clip-rule="evenodd" d="M74.48 43.2362C74.4873 43.2425 74.4925 43.2514 74.4937 43.2616C74.6134 44.322 74.5265 45.3715 74.2603 46.3622C74.2569 46.375 74.2475 46.3862 74.2349 46.3905L71.1314 47.4335C71.1173 47.4381 71.102 47.434 71.0914 47.4237L69.1812 45.58C69.1691 45.5683 69.1655 45.5504 69.1724 45.535C69.4703 44.8684 69.5499 44.099 69.3462 43.3387C69.3431 43.3268 69.3456 43.3144 69.3531 43.3046C69.3605 43.2947 69.372 43.2881 69.3843 43.288L74.4537 43.2264L74.48 43.2362Z" fill="#31EBD4"/>
<path fill-rule="evenodd" clip-rule="evenodd" d="M74.2492 46.3228C74.26 46.3329 74.2648 46.3486 74.261 46.3629C73.8782 47.787 73.1245 49.0901 72.0813 50.1324C72.0716 50.1421 72.0575 50.1461 72.0442 50.1432C72.0308 50.1401 72.0194 50.1307 72.0149 50.1178L71.0813 47.4088C71.0778 47.3987 71.0785 47.3871 71.0832 47.3775C71.0879 47.368 71.0966 47.3604 71.1067 47.357L74.2092 46.314C74.2231 46.3094 74.2385 46.3129 74.2492 46.3228Z" fill="#34F6D9"/>
<path fill-rule="evenodd" clip-rule="evenodd" d="M66.6306 35.8179L66.656 35.8286C66.6627 35.8351 66.6668 35.844 66.6677 35.854L67.0632 40.9644C67.0642 40.9773 67.0585 40.9903 67.0485 40.9985C67.0386 41.0067 67.0249 41.0097 67.0124 41.0064C66.4712 40.861 65.8856 40.8509 65.3054 41.0064C63.5463 41.478 62.5021 43.2872 62.9733 45.0464C63.4449 46.8054 65.2532 47.8484 67.0124 47.3774C68.0114 47.1098 68.7808 46.4118 69.1726 45.5356L69.1843 45.52C69.1891 45.5163 69.1947 45.5134 69.2009 45.5122C69.2137 45.5097 69.2276 45.5139 69.237 45.523L71.1472 47.3667L71.1569 47.3823L72.0905 50.0913C72.0955 50.1058 72.0916 50.1225 72.0808 50.1333C71.0757 51.1373 69.8014 51.8993 68.3308 52.2935C63.8574 53.492 59.259 50.836 58.0603 46.3628C56.8618 41.8895 59.5157 37.29 63.989 36.0913C64.7631 35.8839 65.541 35.7921 66.3044 35.8052L66.6306 35.8179Z" fill="#37FFDE"/>
<path fill-rule="evenodd" clip-rule="evenodd" d="M66.63 35.8174C68.2772 35.9104 69.8439 36.4907 71.1427 37.4493C71.1562 37.4593 71.1621 37.4771 71.1573 37.4932L69.423 43.3399C69.4179 43.3571 69.4018 43.3684 69.3839 43.3682C69.3661 43.3679 69.3504 43.3561 69.3458 43.3389C69.0298 42.1598 68.1131 41.3016 67.0128 41.0059C66.9965 41.0015 66.9839 40.9876 66.9825 40.9708L66.588 35.8604C66.5872 35.849 66.5917 35.8374 66.5997 35.8291C66.6077 35.8212 66.6187 35.8169 66.63 35.8174Z" fill="#34F3D8"/>
<path fill-rule="evenodd" clip-rule="evenodd" d="M101.646 25.774C103.448 25.2916 105.302 26.3607 105.785 28.1626C106.267 29.9643 105.196 31.8163 103.394 32.2994C101.606 32.6851 99.7523 31.7562 99.2576 29.9107C98.882 28.1203 99.7945 26.2708 101.646 25.774Z" fill="#21AFB8"/>
<path fill-rule="evenodd" clip-rule="evenodd" d="M111.917 20.7552C111.932 20.7518 111.947 20.7577 111.957 20.7699C111.966 20.7823 111.968 20.799 111.96 20.8128L109.756 24.9574C109.75 24.97 109.737 24.9784 109.722 24.9789C109.708 24.9792 109.694 24.9716 109.687 24.9593C108.957 23.7427 107.932 22.7412 106.738 22.0248C106.724 22.0164 106.717 21.9998 106.719 21.9837C106.722 21.9677 106.734 21.9552 106.75 21.9515L111.917 20.7552Z" fill="#20ABB6"/>
<path fill-rule="evenodd" clip-rule="evenodd" d="M101.676 14.9314L111.945 20.7596C111.959 20.7677 111.967 20.7836 111.965 20.7996C111.963 20.8158 111.95 20.8289 111.935 20.8328L106.768 22.0291C106.758 22.0314 106.746 22.0295 106.737 22.0242C104.759 20.8377 102.313 20.4346 99.961 21.1346C99.9471 21.1387 99.9314 21.135 99.921 21.1248C99.9108 21.1146 99.9073 21.0996 99.9112 21.0857L101.617 14.9559L101.626 14.9402C101.63 14.9357 101.635 14.9318 101.641 14.9295C101.652 14.9248 101.665 14.9254 101.676 14.9314Z" fill="#22B4BB"/>
<path fill-rule="evenodd" clip-rule="evenodd" d="M101.652 14.9266C101.665 14.9256 101.678 14.9312 101.687 14.9412C101.695 14.9513 101.698 14.9648 101.694 14.9773L99.9874 21.1072C99.9819 21.127 99.9627 21.1391 99.9425 21.1355L94.7208 20.1971C94.708 20.1948 94.697 20.1864 94.6915 20.1746C94.6861 20.1629 94.687 20.1497 94.6935 20.1385C95.5471 18.6597 95.5538 16.9229 94.8644 15.492C94.8588 15.4801 94.8588 15.4662 94.8653 15.4549C94.8719 15.4434 94.8844 15.4363 94.8976 15.4354L101.652 14.9266Z" fill="#20A9B6"/>
<path fill-rule="evenodd" clip-rule="evenodd" d="M99.9561 21.0574C99.9741 21.0607 99.988 21.0754 99.9893 21.0936C99.9906 21.1117 99.9792 21.1288 99.962 21.1346C98.0483 21.7527 96.5022 23.0114 95.4981 24.6063C95.4893 24.6203 95.4724 24.6271 95.4561 24.6238C95.44 24.6206 95.4277 24.6079 95.4249 24.5916L94.6886 20.1649C94.6864 20.1521 94.6902 20.1388 94.6993 20.1297C94.7085 20.1206 94.7217 20.1167 94.7345 20.119L99.9561 21.0574Z" fill="#23B8BD"/>
<path fill-rule="evenodd" clip-rule="evenodd" d="M85.4052 17.9025C85.4198 17.9081 85.4297 17.9219 85.4306 17.9376C85.5247 19.5504 86.4047 21.0869 87.9081 21.9552C90.2835 23.326 93.3214 22.5125 94.6933 20.1378L94.7109 20.1222C94.7182 20.1187 94.7269 20.1168 94.7353 20.1183C94.7517 20.1214 94.7648 20.135 94.7675 20.1515L95.5038 24.5782C95.5071 24.5981 95.4947 24.6174 95.4755 24.6232L85.4023 27.5997C85.3844 27.605 85.3655 27.5974 85.3564 27.5812L81.9071 21.4952C81.8987 21.4798 81.9017 21.461 81.914 21.4484L85.3622 17.9112L85.3818 17.9005C85.3893 17.8987 85.3976 17.8996 85.4052 17.9025Z" fill="#23B7BC"/>
<path fill-rule="evenodd" clip-rule="evenodd" d="M95.4958 24.5604C95.5059 24.5737 95.5066 24.5922 95.4978 24.6063C94.671 25.9196 94.2118 27.4611 94.2175 29.0604C94.2176 29.0747 94.2104 29.0884 94.198 29.0955L92.0984 30.3065C91.7059 30.5331 91.3998 30.6529 91.0886 30.6541C90.7771 30.6552 90.4663 30.5375 90.0661 30.3065L85.3718 27.5965C85.3581 27.5886 85.3496 27.5732 85.3513 27.5575C85.3532 27.5417 85.3644 27.5279 85.3796 27.5233L95.4529 24.5467C95.4687 24.542 95.4857 24.5474 95.4958 24.5604Z" fill="#26C1C1"/>
<path fill-rule="evenodd" clip-rule="evenodd" d="M81.9352 21.4367C81.9518 21.4339 81.9689 21.4416 81.9772 21.4563L85.4254 27.5422C85.4343 27.5578 85.4321 27.5773 85.4196 27.5901C85.4068 27.6028 85.3864 27.6059 85.3707 27.5969L76.4537 22.4485C76.4391 22.44 76.4312 22.4231 76.4342 22.4065C76.4372 22.3899 76.4499 22.3771 76.4664 22.3742L81.9352 21.4367Z" fill="#29CCC6"/>
<path fill-rule="evenodd" clip-rule="evenodd" d="M79.4038 14.4374L85.4106 17.9052C85.4213 17.9113 85.4285 17.9222 85.4302 17.9345C85.4318 17.9466 85.428 17.9589 85.4194 17.9677L81.9712 21.5038C81.9653 21.5099 81.9571 21.5141 81.9487 21.5155L76.48 22.453C76.4661 22.4554 76.452 22.4501 76.4429 22.4394C76.4337 22.4284 76.4311 22.4127 76.436 22.3993L79.3462 14.4579L79.3696 14.4335C79.3807 14.4295 79.3936 14.4315 79.4038 14.4374Z" fill="#26C1C1"/>
<path fill-rule="evenodd" clip-rule="evenodd" d="M79.3805 14.4315C79.394 14.4305 79.4075 14.4364 79.4157 14.4471C79.4239 14.4579 79.4262 14.4725 79.4216 14.4852L76.5104 22.4276C76.5063 22.4385 76.4979 22.447 76.487 22.451C76.4759 22.4551 76.463 22.454 76.4528 22.4481L69.1891 18.2548C69.178 18.2484 69.17 18.2362 69.1686 18.2235C69.1674 18.2109 69.1729 18.1988 69.1823 18.1903L72.7926 14.9364L72.8161 14.9266L79.3805 14.4315Z" fill="#29CDC6"/>
<path fill-rule="evenodd" clip-rule="evenodd" d="M73.3959 10.9694L79.4037 14.4372C79.4187 14.446 79.426 14.4632 79.4222 14.4802C79.4183 14.4973 79.4036 14.5101 79.3861 14.5114L72.8217 15.0065C72.8096 15.0074 72.7977 15.0027 72.7894 14.9938C72.7812 14.985 72.777 14.9726 72.7787 14.9606L73.3363 10.9977L73.3441 10.9802C73.3479 10.9749 73.3528 10.9704 73.3588 10.9675C73.3707 10.9617 73.3844 10.9629 73.3959 10.9694Z" fill="#2CD7CB"/>
<path fill-rule="evenodd" clip-rule="evenodd" d="M73.3869 10.9645C73.4065 10.9697 73.4191 10.9894 73.4162 11.0095L72.8586 14.9724C72.8568 14.9849 72.8492 14.9956 72.8381 15.0016C72.8269 15.0076 72.8134 15.0081 72.802 15.0026L67.7278 12.5964C67.7178 12.5916 67.7105 12.5825 67.7072 12.572C67.704 12.5613 67.7056 12.5494 67.7112 12.5397C68.2312 11.6391 68.4437 10.6521 68.3772 9.69696C68.3763 9.68409 68.3819 9.671 68.3918 9.66278C68.4016 9.65489 68.4148 9.65182 68.427 9.65497L73.3869 10.9645Z" fill="#32ECD5"/>
<path fill-rule="evenodd" clip-rule="evenodd" d="M67.7629 12.5241L72.8361 14.9304C72.8481 14.9361 72.8566 14.9475 72.8586 14.9607C72.8605 14.9739 72.8558 14.9878 72.8459 14.9968L69.2355 18.2497C69.2252 18.2589 69.2107 18.2615 69.1974 18.2575C69.1843 18.2535 69.1737 18.2435 69.1701 18.2302L67.7062 12.57C67.7025 12.5551 67.708 12.5388 67.7199 12.529C67.7319 12.5193 67.7489 12.5175 67.7629 12.5241Z" fill="#2FE1D0"/>
<path fill-rule="evenodd" clip-rule="evenodd" d="M67.7502 12.5202C67.7663 12.5224 67.7793 12.5348 67.7834 12.5505L69.2473 18.2097C69.2515 18.2262 69.2449 18.2432 69.2307 18.2526C69.2166 18.262 69.1983 18.2618 69.1848 18.2517L64.7776 14.8972C64.7657 14.888 64.7601 14.8729 64.7629 14.8581C64.7657 14.8433 64.7768 14.831 64.7912 14.8268C65.9798 14.4827 67.0423 13.6968 67.7102 12.5407C67.7182 12.5267 67.7342 12.5181 67.7502 12.5202Z" fill="#33F2D7"/>
<path fill-rule="evenodd" clip-rule="evenodd" d="M64.8259 14.8333L69.2322 18.1878C69.2422 18.1954 69.2479 18.2074 69.2478 18.22C69.2476 18.2327 69.2416 18.2449 69.2312 18.2522C67.4827 19.4928 65.3782 20.1421 63.2459 20.1106C63.2335 20.1103 63.222 20.104 63.2146 20.094C63.2072 20.0839 63.2052 20.0709 63.2088 20.0589L64.7634 14.8538L64.7732 14.8372C64.7776 14.8329 64.7828 14.8294 64.7888 14.8274C64.8013 14.8234 64.8155 14.8253 64.8259 14.8333Z" fill="#35F8DA"/>
<path fill-rule="evenodd" clip-rule="evenodd" d="M72.8317 6.59867C72.8433 6.6025 72.8529 6.61152 72.8571 6.62308C73.3613 8.01561 73.5575 9.51431 73.4166 11.0069C73.4155 11.0184 73.4095 11.0294 73.4 11.0362C73.3904 11.0429 73.3781 11.045 73.3668 11.042L68.4069 9.73246C68.3919 9.7285 68.3804 9.71645 68.3776 9.70121C68.3749 9.68584 68.3813 9.67007 68.3942 9.66117L72.7965 6.60355L72.8131 6.59671C72.8191 6.59581 72.8257 6.59678 72.8317 6.59867Z" fill="#34F5D9"/>
<path fill-rule="evenodd" clip-rule="evenodd" d="M54.701 5.02924C57.4776 0.220337 63.6273 -1.42786 68.4364 1.34857L68.8289 1.58685C70.7551 2.81783 72.1272 4.60975 72.8563 6.62299C72.8625 6.64004 72.8565 6.65951 72.8416 6.66986L68.4393 9.7265C68.4276 9.73465 68.4122 9.73647 68.3993 9.73041C68.3864 9.72424 68.3779 9.7114 68.3768 9.6972C68.2724 8.19803 67.4807 6.77564 66.1112 5.88763C63.7506 4.35709 60.5125 5.1365 59.1063 7.57318C57.7352 9.94914 58.5498 12.9859 60.9256 14.3574C62.1446 15.061 63.5378 15.1898 64.7909 14.8271C64.8048 14.8231 64.8197 14.8275 64.8299 14.8378C64.8401 14.8482 64.8439 14.8629 64.8397 14.8769L63.285 20.082C63.2798 20.0989 63.2646 20.1104 63.2469 20.1103C61.591 20.0859 59.9178 19.6512 58.3817 18.7646C53.5727 15.9881 51.9248 9.83828 54.701 5.02924Z" fill="#37FFDE"/>
<path fill-rule="evenodd" clip-rule="evenodd" d="M88.9117 16.7979C89.3839 15.9813 90.4296 15.7023 91.2466 16.1739C92.0628 16.6459 92.3432 17.69 91.8726 18.5069C91.4007 19.3241 90.355 19.6043 89.5376 19.1329C88.7204 18.6609 88.4398 17.6153 88.9117 16.7979Z" fill="#23B8BD"/>
<path fill-rule="evenodd" clip-rule="evenodd" d="M94.336 10.7666L101.676 14.9316C101.691 14.9403 101.699 14.9584 101.695 14.9756C101.692 14.9926 101.677 15.0054 101.659 15.0068L94.9034 15.5146C94.887 15.5158 94.8715 15.507 94.8644 15.4922C94.4464 14.6247 93.7725 13.8694 92.8761 13.3515C92.8571 13.3406 92.8497 13.3159 92.8605 13.2968L94.2823 10.7822L94.3058 10.7636C94.3158 10.7609 94.3269 10.7616 94.336 10.7666Z" fill="#23B8BD"/>
<path fill-rule="evenodd" clip-rule="evenodd" d="M94.3218 10.7621C94.3349 10.7637 94.3461 10.7718 94.3521 10.7836C94.3581 10.7955 94.3577 10.81 94.3511 10.8216L92.9302 13.3363C92.925 13.3456 92.9161 13.353 92.9058 13.3558C92.8957 13.3585 92.8846 13.3571 92.8755 13.3519C91.3768 12.4869 89.6127 12.4916 88.1714 13.2093C88.1574 13.2162 88.1406 13.2143 88.1285 13.2045C88.1163 13.1944 88.1116 13.1777 88.1158 13.1625L88.9556 10.1185L88.9722 10.0961C88.9798 10.0911 88.989 10.0881 88.9986 10.0892L94.3218 10.7621Z" fill="#28CAC5"/>
<path fill-rule="evenodd" clip-rule="evenodd" d="M86.9971 6.6016L94.337 10.7666C94.3535 10.7761 94.3606 10.7964 94.3546 10.8145C94.3485 10.8325 94.3305 10.8442 94.3116 10.8418L88.9893 10.169C88.9769 10.1674 88.9653 10.1603 88.9591 10.1495L86.9434 6.65629C86.9345 6.64068 86.9366 6.62121 86.9493 6.60844C86.9619 6.5958 86.9815 6.59293 86.9971 6.6016Z" fill="#2BD2C9"/>
<path fill-rule="evenodd" clip-rule="evenodd" d="M86.9785 6.59675C86.9923 6.59714 87.0047 6.60523 87.0117 6.61726L89.0283 10.1094C89.0336 10.1187 89.035 10.1294 89.0322 10.1397L88.1923 13.1837C88.189 13.1955 88.1803 13.2053 88.1689 13.21C88.1574 13.2147 88.1444 13.2143 88.1337 13.2081L84.2031 10.9385C84.1936 10.9331 84.1861 10.9238 84.1835 10.9132C84.1811 10.9027 84.1836 10.8919 84.1894 10.8829L86.9433 6.61531C86.9509 6.6036 86.9645 6.59641 86.9785 6.59675Z" fill="#2EE1CF"/>
<path fill-rule="evenodd" clip-rule="evenodd" d="M82.7626 9.66281L84.248 10.8728C84.2585 10.8813 84.2641 10.8954 84.2626 10.9089C84.261 10.9223 84.2522 10.9341 84.2402 10.9402C83.5039 11.3079 82.7164 11.471 81.9413 11.4558C81.928 11.4555 81.9153 11.4485 81.9081 11.4372C81.901 11.4258 81.9006 11.4114 81.9062 11.3991L82.7011 9.67746C82.7062 9.66632 82.7165 9.65784 82.7284 9.655C82.7403 9.65225 82.7531 9.65522 82.7626 9.66281Z" fill="#35F6D9"/>
<path fill-rule="evenodd" clip-rule="evenodd" d="M86.9847 6.59771C86.9977 6.60023 87.0087 6.60897 87.0139 6.62115C87.0191 6.63324 87.018 6.64718 87.011 6.65826L84.2561 10.9258C84.25 10.9353 84.2399 10.9416 84.2288 10.9434C84.2178 10.9452 84.2063 10.9425 84.1975 10.9356L82.7122 9.72467C82.7052 9.71889 82.7004 9.71109 82.6985 9.70221L82.3723 8.04791C82.3683 8.02742 82.3806 8.00765 82.4007 8.00201C83.2691 7.76887 83.7854 6.8755 83.553 6.00689C83.5495 5.99366 83.5525 5.97888 83.5618 5.96881C83.5712 5.95873 83.5854 5.95454 83.5989 5.95709L86.9847 6.59771Z" fill="#31EAD4"/>
<path d="M86.7199 4.77991C86.7296 4.7844 86.7377 4.79232 86.7414 4.80237C86.9441 5.37502 87.0443 5.99422 87.0177 6.63831C87.0172 6.64992 87.0112 6.66135 87.0021 6.66858C86.9931 6.67558 86.9811 6.67852 86.9699 6.67639L83.5841 6.03577C83.5667 6.03233 83.5535 6.01737 83.5519 5.99963C83.5504 5.98194 83.5608 5.96506 83.5773 5.95862L86.6896 4.77893L86.7199 4.77991Z" fill="#34F2D8"/>
<path fill-rule="evenodd" clip-rule="evenodd" d="M80.6732 1.55276C83.3007 0.849166 85.9007 2.43024 86.7406 4.80276C86.7479 4.82326 86.7375 4.84583 86.7172 4.85354L83.6058 6.03323C83.5954 6.0372 83.5836 6.03727 83.5736 6.03225C83.5636 6.02714 83.5561 6.01765 83.5531 6.00686C83.3201 5.13833 82.4267 4.6222 81.558 4.85452C80.6896 5.08768 80.1742 5.98098 80.4066 6.84963C80.6395 7.71828 81.533 8.23429 82.4017 8.00198L82.433 8.00588C82.4423 8.01169 82.4484 8.02151 82.4506 8.03225L82.7767 9.68655C82.7783 9.69477 82.7773 9.70336 82.7738 9.71096L81.9789 11.4326C81.9723 11.4469 81.9575 11.4562 81.9418 11.4561C79.778 11.4135 77.707 9.98092 77.1049 7.7344C76.3793 5.02493 78.0416 2.33199 80.6732 1.55276Z" fill="#37FFDE"/>
<path d="M93.1944 39.2507C93.2072 39.2618 93.2122 39.2798 93.2061 39.2956L90.1231 47.1208C90.115 47.141 90.0926 47.1509 90.0723 47.1433L82.7237 44.3699C82.7082 44.364 82.6984 44.3493 82.6983 44.3327C82.6982 43.7663 82.4026 43.243 81.9219 42.947C81.9096 42.9394 81.9018 42.9253 81.9024 42.9109C81.903 42.8966 81.9111 42.8832 81.9239 42.8767L88.9756 39.2458C88.9877 39.2396 89.0019 39.24 89.0137 39.2468C90.2921 39.9847 91.87 39.9846 93.1485 39.2468C93.1631 39.2383 93.1815 39.2397 93.1944 39.2507Z" fill="#21AFB8"/>
<path d="M82.752 44.2954L90.1006 47.0688C90.1139 47.074 90.1239 47.0859 90.126 47.1001C90.128 47.1144 90.1219 47.1294 90.1104 47.1381L78.291 55.9712C78.279 55.9801 78.2625 55.9816 78.249 55.9751C78.2355 55.9683 78.2266 55.9541 78.2266 55.9389V48.8325C78.2266 48.2275 78.5472 47.668 79.0674 47.3608L81.8818 45.7436C82.3861 45.4532 82.6965 44.9145 82.6973 44.3325C82.6973 44.3194 82.704 44.3067 82.7148 44.2993C82.7256 44.2918 82.7397 44.2907 82.752 44.2954Z" fill="#1FA7B5"/>
<path d="M111.945 20.7592L140.822 37.1469L141.065 37.2904C143.548 38.8106 145.072 41.5188 145.072 44.4437C145.072 47.4631 143.447 50.2507 140.82 51.7396L90.7461 80.1156C88.1509 81.5854 84.9688 81.5659 82.3916 80.0648C79.8142 78.5628 78.2272 75.8037 78.2266 72.8207V55.9193L78.2422 55.9066L90.0527 47.0804L93.1309 39.266L93.1367 39.2533L93.1484 39.2465L98.3535 36.2426L98.373 36.2308L98.3926 36.2426C100.228 37.294 102.464 37.6484 104.669 37.058C108.961 35.9077 111.563 31.599 110.643 27.3031L110.562 26.9886C110.358 26.2621 110.061 25.5825 109.687 24.9594L109.675 24.9398L109.686 24.9203L111.89 20.7758L111.909 20.7396L111.945 20.7592Z" fill="#1EA5B4"/>
</svg>
