<svg width="200" height="22" viewBox="0 0 200 22" fill="none" xmlns="http://www.w3.org/2000/svg">
<path d="M113.459 0.179016C121.179 0.179016 121.259 12.0879 113.4 12.0879L118.921 18.5901C120.645 20.7058 118.138 23.0498 116.059 20.9357L109.549 13.2909C108.909 12.5214 108.424 11.8818 108.424 10.8279C108.424 9.5175 109.393 9.09204 110.593 9.09195H113.827C117.539 9.0915 117.783 3.68567 113.827 3.68518H105.19V20.0701C105.19 22.3084 101.684 22.3435 101.684 20.1044V1.85304C101.684 0.69176 102.136 0.179016 103.35 0.179016H113.459Z" fill="#D9D9D9"/>
<path d="M42.7668 0.179114C50.8028 0.179307 50.834 12.5982 42.7994 12.5982H35.8229V19.8746C35.8226 22.3491 32.3854 22.4111 32.3852 19.8746V11.5958C32.3853 9.98271 32.8616 9.09205 34.5547 9.09205H43.1335C47.1322 9.09205 46.8797 3.68528 43.1335 3.68528H33.9875C31.7974 3.68528 31.6151 0.179169 33.9533 0.179114H42.7668Z" fill="#D9D9D9"/>
<path d="M136.076 0.179016C144.108 0.179016 144.151 12.5978 136.11 12.5981H129.132V19.8745C129.131 22.3467 125.694 22.3813 125.694 19.8745V11.5957C125.694 9.98376 126.172 9.09201 127.864 9.09195H136.442C140.443 9.09195 140.19 3.68518 136.442 3.68518H127.296C125.036 3.68518 125.02 0.179338 127.262 0.179016H136.076Z" fill="#1EA5B4"/>
<path d="M54.9919 1.68199C54.9919 -0.541648 58.4638 -0.563353 58.4638 1.68199V9.09205H67.3425V1.68199C67.3425 -0.570685 70.7819 -0.526319 70.7819 1.68199V20.0083C70.7816 22.2055 67.3428 22.2578 67.3425 20.0083V12.5982H58.4638V20.0083C58.4635 22.196 54.9922 22.3119 54.9919 20.0083V1.68199Z" fill="#D9D9D9"/>
<path d="M21.7069 1.68199C21.7069 -0.571761 25.1463 -0.520701 25.1463 1.68199V20.0083C25.146 22.1999 21.7072 22.2588 21.7069 20.0083V1.68199Z" fill="#D9D9D9"/>
<path d="M184.604 2.59959C183.531 0.677258 186.407 -1.13807 187.589 0.888074L192.178 8.74476L196.717 0.879924C197.899 -1.13812 200.911 0.717249 199.731 2.60448L193.905 11.9885V20.0082C193.905 22.1998 190.466 22.2587 190.466 20.0082V11.9852L184.604 2.59959Z" fill="#1EA5B4"/>
<path d="M171.995 2.25892C171.112 0.198808 174.436 -0.928804 175.297 1.1554L182.898 19.3937C183.743 21.5077 180.451 22.6142 179.581 20.507L179.569 20.4776L178.565 18.1728H167.724L166.666 20.4662C165.756 22.513 162.447 21.5313 163.347 19.4295L167.113 11.0724C168.022 9.02692 171.401 9.99849 170.448 12.0651L170.431 12.0993L170.417 12.1352L169.113 15.3349H177.437L172.003 2.27522L171.995 2.25892Z" fill="#1EA5B4"/>
<path d="M13.1868 0.179114C15.7822 0.179339 15.9013 3.75188 13.1868 3.75211C11.0345 3.75211 8.8052 3.7461 6.90475 4.89965C4.99593 6.07128 3.6056 8.0847 3.6056 10.7954C3.60571 12.7356 4.34969 14.445 5.52739 15.7099C7.51148 17.8219 10.3642 18.0066 13.0858 18.0066C15.9098 18.0066 15.8149 21.5112 13.0858 21.5112C9.29661 21.5112 5.51602 20.8817 2.80689 17.9789C1.02642 15.9685 8.82183e-05 13.4312 0 10.7286C0 7.35269 1.51851 4.37886 4.13046 2.42365C6.77066 0.474179 10.0102 0.179114 13.1868 0.179114Z" fill="#D9D9D9"/>
<path d="M93.2468 0.179114C95.4774 0.179628 95.5422 3.68467 93.2468 3.68528H81.3949V9.32677H93.4457C95.3347 9.32677 95.2465 12.3977 93.4457 12.3977H81.3949V18.0066H93.3136C95.6247 18.0073 95.6315 21.5105 93.3136 21.5112H79.6932C78.4647 21.5112 77.9899 20.9951 77.9898 19.7752V1.91508C77.9899 0.682294 78.4533 0.179114 79.6932 0.179114H93.2468Z" fill="#D9D9D9"/>
<path d="M148.301 1.68189C148.301 -0.57124 151.706 -0.512024 151.706 1.68189V18.0065H157.013C159.105 18.0065 159.115 21.5111 157.013 21.5111H150.004C148.776 21.5111 148.301 20.9951 148.301 19.7751V1.68189Z" fill="#1EA5B4"/>
</svg>
