<?xml version="1.0" encoding="UTF-8"?> <svg xmlns="http://www.w3.org/2000/svg" width="120" height="48" viewBox="0 0 120 48" fill="none"><path d="M4.77064 47.8343L3.75586 42.8514V42.8278C3.75586 42.7571 3.79489 42.7217 3.87945 42.7217H4.44539C4.47792 42.7217 4.50393 42.7276 4.52995 42.7453C4.54947 42.763 4.56248 42.7865 4.56898 42.816L5.32356 46.8613C5.32356 46.879 5.33007 46.8908 5.34308 46.8908C5.35609 46.8908 5.3691 46.879 5.3691 46.8613L7.21001 42.816C7.23603 42.7512 7.28807 42.7217 7.35963 42.7217H7.90605C7.9711 42.7217 8.00362 42.7453 8.00362 42.7865L7.98411 42.8455L5.60978 47.8284C5.58376 47.8873 5.53823 47.9168 5.47318 47.9168H4.89423C4.81617 47.9227 4.77064 47.8932 4.77064 47.8343Z" fill="#939598"></path><path d="M18.2563 47.8932C18.2368 47.8755 18.2303 47.8461 18.2368 47.8107L18.9068 42.8337C18.9133 42.7983 18.9263 42.7747 18.9524 42.7512C18.9784 42.7276 19.0109 42.7217 19.0499 42.7217H19.5768C19.6094 42.7217 19.6354 42.7335 19.6549 42.7512C19.6744 42.7689 19.6809 42.7983 19.6744 42.8337L19.0044 47.8107C18.9979 47.8461 18.9849 47.8755 18.9589 47.8932C18.9328 47.9109 18.9068 47.9227 18.8743 47.9227H18.3474C18.3019 47.9227 18.2758 47.9109 18.2563 47.8932Z" fill="#939598"></path><path d="M33.4511 47.8402L32.6444 45.6407C32.6444 45.6289 32.6379 45.623 32.6314 45.6171C32.6249 45.6112 32.6119 45.6112 32.6054 45.6112H31.48C31.454 45.6112 31.441 45.623 31.441 45.6466L31.1483 47.8049C31.1418 47.8402 31.1288 47.8697 31.1028 47.8874C31.0767 47.9051 31.0507 47.9169 31.0182 47.9169H30.4913C30.4523 47.9169 30.4262 47.9051 30.4067 47.8874C30.3872 47.8697 30.3807 47.8402 30.3872 47.8049L31.0572 42.822C31.0637 42.7866 31.0767 42.7571 31.1028 42.7394C31.1288 42.7218 31.1613 42.71 31.2003 42.71H33.2949C33.7243 42.71 34.069 42.822 34.3227 43.0461C34.5764 43.2702 34.7065 43.5709 34.7065 43.9483C34.7065 43.9955 34.7 44.078 34.687 44.1842C34.6415 44.5262 34.5049 44.8151 34.2837 45.0569C34.056 45.2987 33.7698 45.4579 33.4185 45.5464C33.399 45.5523 33.386 45.564 33.386 45.5935L34.2186 47.7813C34.2252 47.7931 34.2252 47.8049 34.2252 47.8285C34.2252 47.8874 34.1861 47.9169 34.1081 47.9169H33.5681C33.5096 47.9228 33.4641 47.8933 33.4511 47.8402ZM31.7533 43.3704L31.5256 45.0215C31.5256 45.0451 31.5386 45.0569 31.5646 45.0569H32.8851C33.1844 45.0569 33.438 44.9626 33.6332 44.7739C33.8349 44.5852 33.9324 44.3493 33.9324 44.0603C33.9324 43.8363 33.8609 43.6594 33.7113 43.5296C33.5616 43.3999 33.3665 43.335 33.1128 43.335H31.7923C31.7663 43.3291 31.7533 43.3468 31.7533 43.3704Z" fill="#939598"></path><path d="M45.7984 47.5869C45.4862 47.3275 45.3301 46.9678 45.3301 46.5255C45.3301 46.4783 45.3366 46.3899 45.3496 46.2719L45.6033 44.3731C45.6488 44.0311 45.7659 43.7304 45.9676 43.4768C46.1692 43.2174 46.4229 43.0228 46.7352 42.8812C47.0474 42.7397 47.3922 42.6689 47.776 42.6689C48.1272 42.6689 48.433 42.7279 48.6867 42.8459C48.9469 42.9638 49.1485 43.1289 49.2916 43.3412C49.4347 43.5535 49.5063 43.7894 49.5063 44.0606C49.5063 44.1078 49.4998 44.1844 49.4868 44.2847V44.3319C49.4803 44.3672 49.4673 44.3967 49.4412 44.4144C49.4152 44.4321 49.3827 44.4439 49.3437 44.4439H48.8168C48.7842 44.4439 48.7582 44.438 48.7322 44.4203C48.7062 44.4026 48.6997 44.3908 48.7062 44.3672L48.7127 44.3024C48.7192 44.267 48.7192 44.2198 48.7192 44.155C48.7192 43.8955 48.6281 43.6891 48.4395 43.5358C48.2573 43.3825 47.9971 43.2999 47.6784 43.2999C47.3206 43.2999 47.0279 43.3943 46.7872 43.5889C46.5465 43.7835 46.4034 44.037 46.3579 44.3614L46.0977 46.3073C46.0912 46.3486 46.0912 46.4017 46.0912 46.4724C46.0912 46.7437 46.1887 46.9619 46.3839 47.127C46.579 47.2921 46.8392 47.3747 47.1645 47.3747C47.5093 47.3747 47.7955 47.2862 48.0231 47.1211C48.2508 46.9501 48.3874 46.7142 48.4265 46.4194L48.498 45.8533C48.511 45.8297 48.498 45.8179 48.4655 45.8179H47.4442C47.4052 45.8179 47.3792 45.8061 47.3596 45.7884C47.3401 45.7707 47.3336 45.7412 47.3401 45.7058L47.3987 45.3166C47.4052 45.2813 47.4182 45.2577 47.4377 45.2341C47.4572 45.2164 47.4897 45.2046 47.5288 45.2046H49.2396C49.2721 45.2046 49.2981 45.2164 49.3176 45.2341C49.3372 45.2518 49.3437 45.2813 49.3372 45.3166L49.2136 46.2248C49.1355 46.7968 48.9078 47.2331 48.5175 47.5398C48.1272 47.8464 47.6394 47.9997 47.0409 47.9997C46.527 47.982 46.1107 47.8523 45.7984 47.5869Z" fill="#939598"></path><path d="M60.2251 47.8932C60.2056 47.8755 60.1991 47.8461 60.2056 47.8107L60.8756 42.8337C60.8821 42.7983 60.8951 42.7747 60.9211 42.7512C60.9471 42.7335 60.9797 42.7217 61.0122 42.7217H61.5391C61.5716 42.7217 61.5976 42.7335 61.6171 42.7512C61.6367 42.7689 61.6432 42.7983 61.6367 42.8337L60.9666 47.8107C60.9601 47.8461 60.9471 47.8755 60.9211 47.8932C60.8951 47.9109 60.8691 47.9227 60.8365 47.9227H60.3096C60.2706 47.9227 60.2446 47.9109 60.2251 47.8932Z" fill="#939598"></path><path d="M72.3774 47.8933C72.3579 47.8756 72.3514 47.8461 72.3579 47.8107L73.0279 42.8338C73.0344 42.7984 73.0474 42.7748 73.0735 42.7512C73.0995 42.7335 73.132 42.7217 73.1645 42.7217H73.6719C73.737 42.7217 73.7825 42.7453 73.802 42.7984L75.734 46.4721C75.7405 46.4898 75.747 46.4957 75.76 46.4898C75.773 46.4898 75.7795 46.478 75.786 46.4544L76.2804 42.8279C76.2869 42.7925 76.2999 42.7689 76.326 42.7453C76.352 42.7276 76.378 42.7158 76.4105 42.7158H76.9374C76.9765 42.7158 77.0025 42.7276 77.022 42.7453C77.0415 42.763 77.048 42.7925 77.0415 42.8279L76.3715 47.8048C76.365 47.8402 76.352 47.8697 76.326 47.8874C76.2999 47.9051 76.2674 47.9169 76.2284 47.9169H75.7145C75.6494 47.9169 75.6039 47.8933 75.5844 47.8402L73.6524 44.1429C73.6459 44.1252 73.6394 44.1193 73.6264 44.1252C73.6134 44.1252 73.6069 44.137 73.6004 44.1606L73.119 47.8048C73.1125 47.8402 73.0995 47.8697 73.0735 47.8874C73.0474 47.9051 73.0214 47.9169 72.9889 47.9169H72.462C72.423 47.9228 72.3969 47.911 72.3774 47.8933Z" fill="#939598"></path><path d="M87.7739 47.8932C87.7544 47.8755 87.7479 47.8461 87.7544 47.8107L88.4244 42.8337C88.4309 42.7983 88.4439 42.7747 88.4699 42.7512C88.496 42.7335 88.5285 42.7217 88.561 42.7217H89.0879C89.1204 42.7217 89.1465 42.7335 89.166 42.7512C89.1855 42.7689 89.192 42.7983 89.1855 42.8337L88.5155 47.8107C88.509 47.8461 88.496 47.8755 88.4699 47.8932C88.4439 47.9109 88.4179 47.9227 88.3854 47.9227H87.8585C87.8259 47.9227 87.7934 47.9109 87.7739 47.8932Z" fill="#939598"></path><path d="M103.081 47.8342L102.918 47.0028C102.918 46.9969 102.918 46.991 102.912 46.9851C102.905 46.9792 102.899 46.9733 102.886 46.9733H100.668C100.648 46.9733 100.635 46.9851 100.629 47.0028L100.238 47.8342C100.212 47.8932 100.16 47.9227 100.089 47.9227H99.5227C99.4642 47.9227 99.4316 47.8991 99.4316 47.8578L99.4512 47.7989L101.845 42.816C101.871 42.757 101.923 42.7275 101.995 42.7275H102.723C102.788 42.7275 102.827 42.757 102.847 42.816L103.907 47.7989V47.8283C103.907 47.8932 103.868 47.9227 103.79 47.9227H103.218C103.133 47.9227 103.094 47.8932 103.081 47.8342ZM100.941 46.4072H102.762C102.795 46.4072 102.808 46.3895 102.795 46.36L102.255 43.5885C102.248 43.5708 102.242 43.559 102.229 43.559C102.216 43.559 102.209 43.5708 102.203 43.5885L100.915 46.36C100.902 46.3895 100.908 46.4072 100.941 46.4072Z" fill="#939598"></path><path d="M1.843 37.2319C0.724138 36.1351 0.158203 34.6608 0.158203 32.821C0.158203 32.6028 0.190728 32.2195 0.249273 31.6652L0.385877 30.7571C0.444422 30.48 0.613552 30.3443 0.886762 30.3443H2.29835C2.57156 30.3443 2.70816 30.48 2.70816 30.7571L2.57156 31.5827C2.51301 32.0249 2.48049 32.3493 2.48049 32.5734C2.48049 33.9178 2.85127 34.9911 3.59284 35.7872C4.33441 36.5832 5.32968 36.9842 6.57213 36.9842C7.5739 36.9842 8.49761 36.7307 9.34326 36.2235C10.1889 35.7164 10.8654 35.0029 11.3663 34.0771C11.8672 33.1571 12.1144 32.1075 12.1144 30.9222C12.1144 30.0967 11.9323 29.3655 11.568 28.7168C11.2037 28.074 10.7483 27.5138 10.2019 27.048C9.6555 26.5821 8.7448 25.8391 7.47633 24.8249C6.23387 23.8931 5.27113 23.103 4.58811 22.4543C3.90508 21.8116 3.35216 21.0744 2.92933 20.2489C2.50651 19.4233 2.29184 18.4739 2.29184 17.4066C2.29184 15.7555 2.64311 14.3284 3.33915 13.1196C4.03518 11.9107 4.97841 10.9849 6.15581 10.3362C7.33972 9.69347 8.64072 9.36914 10.0653 9.36914C11.9778 9.36914 13.4804 9.91165 14.5863 10.9967C15.6921 12.0817 16.2451 13.5618 16.2451 15.4252C16.2451 15.6729 16.2125 16.0975 16.154 16.7049L16.0174 17.7368C15.9849 17.8488 15.9263 17.9432 15.8353 18.0258C15.7442 18.1083 15.6401 18.1496 15.5165 18.1496H14.1049C13.9553 18.1496 13.8382 18.1083 13.7667 18.0258C13.6886 17.9432 13.6691 17.8488 13.6951 17.7368L13.8317 16.7049C13.8903 16.2095 13.9228 15.8675 13.9228 15.6729C13.9228 14.3284 13.552 13.2552 12.8104 12.4591C12.0689 11.663 11.0736 11.262 9.83114 11.262C8.49761 11.262 7.35273 11.6925 6.3965 12.5594C5.44026 13.4262 4.85481 14.6409 4.64665 16.2095C4.58811 16.6518 4.55558 16.9525 4.55558 17.1176C4.55558 18.1909 4.87433 19.1167 5.51182 19.901C6.14931 20.6852 7.30069 21.7054 8.96597 22.9732C10.3906 24.0701 11.4639 24.9546 12.1925 25.6091C12.921 26.2696 13.4804 26.9772 13.8772 27.732C14.2675 28.4868 14.4692 29.3478 14.4692 30.309C14.4692 30.5566 14.4367 30.9576 14.3781 31.506C14.0724 33.7291 13.1812 35.5159 11.6981 36.8663C10.2149 38.2108 8.42606 38.8889 6.33145 38.8889C4.46451 38.883 2.96836 38.3346 1.843 37.2319Z" fill="black"></path><path d="M33.6787 9.82403C33.7567 9.90659 33.7763 10.0009 33.7502 10.113L33.6136 11.2275C33.5551 11.5046 33.386 11.6403 33.1127 11.6403H27.2452C27.1542 11.6403 27.0761 11.6933 27.0176 11.8054L23.4723 38.1408C23.4138 38.418 23.2447 38.5536 22.9715 38.5536H21.5143C21.2086 38.5536 21.0915 38.418 21.1501 38.1408L24.6953 11.8054C24.6953 11.6933 24.6497 11.6403 24.5587 11.6403H19.0099C18.8863 11.6403 18.7887 11.599 18.7172 11.5164C18.6391 11.4339 18.6196 11.3395 18.6456 11.2275L18.7822 10.113C18.8408 9.83582 19.0099 9.7002 19.2831 9.7002H33.3795C33.503 9.7002 33.6006 9.74148 33.6787 9.82403Z" fill="black"></path><path d="M43.2792 38.1821L42.8238 32.7806C42.8238 32.6685 42.7653 32.6155 42.6417 32.6155H34.0486C33.99 32.6155 33.925 32.639 33.8664 32.6803C33.8079 32.7216 33.7754 32.757 33.7754 32.7806L31.8174 38.1821C31.7263 38.4298 31.5442 38.5536 31.2709 38.5536H29.8138C29.6642 38.5536 29.5536 38.5123 29.4951 38.4298C29.4365 38.3472 29.4365 38.2352 29.4951 38.0996L40.0072 10.0717C40.0657 9.82403 40.2478 9.7002 40.5536 9.7002H42.2839C42.5896 9.7002 42.7393 9.82403 42.7393 10.0717L45.6925 38.0996C45.6925 38.4003 45.5429 38.5536 45.2372 38.5536H43.7345C43.4288 38.5536 43.2792 38.4298 43.2792 38.1821ZM34.5495 30.7403C34.582 30.7815 34.6275 30.8051 34.6861 30.8051H42.414C42.5376 30.8051 42.5961 30.752 42.5961 30.64L41.048 13.4506C41.0154 13.3681 40.9894 13.3268 40.9569 13.3268C40.9244 13.3268 40.8983 13.3681 40.8658 13.4506L34.543 30.64C34.5169 30.6695 34.5169 30.699 34.5495 30.7403Z" fill="black"></path><path d="M61.4157 38.4706C61.3246 38.4175 61.2661 38.335 61.2336 38.2229L58.1892 25.0729C58.1567 24.9903 58.0982 24.9491 58.0071 24.9491H53.6422C53.5186 24.9491 53.4601 25.0021 53.4601 25.1142L51.6842 38.1404C51.6257 38.4175 51.4566 38.5532 51.1833 38.5532H49.7262C49.453 38.5532 49.3164 38.4175 49.3164 38.1404L53.1348 10.03C53.1934 9.75282 53.3625 9.61719 53.6357 9.61719H60.4595C62.3069 9.61719 63.764 10.1951 64.8243 11.3509C65.8846 12.5067 66.418 14.0457 66.418 15.9681C66.418 16.2453 66.3855 16.7111 66.327 17.3716C66.0538 19.2409 65.4033 20.8213 64.369 22.1127C63.3412 23.4041 62.0532 24.2709 60.505 24.7073C60.3554 24.7604 60.3099 24.8311 60.3684 24.9137L63.5949 38.105V38.1876C63.5949 38.4352 63.4583 38.5591 63.1851 38.5591H61.728C61.6109 38.5532 61.5068 38.5237 61.4157 38.4706ZM55.236 11.7637L53.7333 22.9736C53.7333 23.0267 53.7463 23.068 53.7788 23.0974C53.8114 23.1269 53.8374 23.1387 53.8699 23.1387H58.3714C59.4317 23.1387 60.3944 22.8439 61.2596 22.2542C62.1248 21.6645 62.8078 20.8389 63.3087 19.7834C63.8095 18.7279 64.0567 17.5249 64.0567 16.1745C64.0567 14.7711 63.686 13.6624 62.9444 12.8369C62.2028 12.0113 61.2075 11.5985 59.9651 11.5985H55.4636C55.3726 11.5985 55.2945 11.6516 55.236 11.7637Z" fill="black"></path><path d="M92.6532 9.82403C92.7312 9.90659 92.7507 10.0009 92.7247 10.113L92.5881 11.2275C92.5296 11.5046 92.3604 11.6403 92.0872 11.6403H77.4445C77.3534 11.6403 77.2753 11.6933 77.2168 11.8054L73.6716 38.1408C73.613 38.418 73.4439 38.5536 73.1707 38.5536H71.7136C71.4078 38.5536 71.2907 38.418 71.3493 38.1408L74.8945 11.8054C74.8945 11.6933 74.849 11.6403 74.7579 11.6403H69.2091C69.0855 11.6403 68.988 11.599 68.9164 11.5164C68.8383 11.4339 68.8188 11.3395 68.8448 11.2275L68.9815 10.113C69.04 9.83582 69.2091 9.7002 69.4823 9.7002H92.3539C92.4775 9.7002 92.5751 9.74148 92.6532 9.82403Z" fill="black"></path><path d="M117.796 11.4921C118.979 12.7128 119.571 14.358 119.571 16.416C119.571 17.0765 119.539 17.5836 119.48 17.9433C119.175 20.361 118.244 22.3129 116.683 23.7989C115.122 25.2849 113.236 26.022 111.024 26.022H106.887C106.763 26.022 106.705 26.0751 106.705 26.1872L105.065 38.1401C105.007 38.4173 104.838 38.5529 104.564 38.5529H101.201C101.078 38.5529 100.98 38.5116 100.909 38.4291C100.831 38.3465 100.811 38.2522 100.837 38.1401L104.655 10.071C104.655 9.95894 104.701 9.86459 104.792 9.78204C104.883 9.69948 105 9.6582 105.156 9.6582H113.021C115.024 9.6582 116.618 10.2715 117.796 11.4921ZM113.658 21.5522C114.504 20.6854 115.037 19.5119 115.252 18.0259C115.311 17.5305 115.343 17.1885 115.343 16.9939C115.343 15.7851 115.031 14.8298 114.413 14.128C113.788 13.4263 112.949 13.0784 111.889 13.0784H108.663C108.571 13.0784 108.493 13.1315 108.435 13.2435L107.16 22.6844C107.16 22.7964 107.218 22.8495 107.342 22.8495H110.569C111.778 22.8495 112.813 22.4132 113.658 21.5522Z" fill="#F05023"></path><path d="M104.258 6.85748L99.6919 0.158632C99.5618 -0.0359647 99.2626 -0.0536551 99.1065 0.117354L92.5364 6.81621C92.3348 7.02849 92.5039 7.35872 92.8161 7.35872H96.2703L92.9462 31.6303C92.7966 32.8096 92.3933 33.7413 91.7428 34.4136C91.0923 35.0858 90.2792 35.422 89.3099 35.422C87.5796 35.422 86.7209 34.5315 86.7209 32.7448C86.7209 32.3851 86.7339 32.102 86.7665 31.8779L89.1213 14.9952C89.1213 14.718 88.9847 14.5824 88.7115 14.5824H85.3484C85.2248 14.5824 85.1207 14.6237 85.0296 14.7062C84.9386 14.7888 84.88 14.8831 84.8475 14.9952L82.4016 32.7448C82.3431 33.2932 82.3105 33.6942 82.3105 33.9418C82.3105 35.593 82.7789 36.8195 83.7221 37.6333C84.6589 38.4412 85.9208 38.848 87.495 38.848C89.466 38.848 90.9817 38.2053 92.042 36.9139C92.0745 36.8608 92.1136 36.8313 92.1591 36.8313C92.2047 36.8313 92.2242 36.8726 92.2242 36.9551L92.042 38.1522C92.042 38.4294 92.1786 38.565 92.4518 38.565H95.8149C95.9385 38.565 96.0426 38.5237 96.1337 38.4412C96.2247 38.3586 96.2703 38.2643 96.2703 38.1522L100.505 7.37051H103.953C104.232 7.35872 104.408 7.07567 104.258 6.85748Z" fill="#F05023"></path></svg> 